<svg width="225" height="54" viewBox="0 0 225 54" fill="none" xmlns="http://www.w3.org/2000/svg">
<rect width="225" height="54" fill="white"/>
<path d="M34.8742 17.6538L25.3134 12.1315C24.6285 11.7382 23.8524 11.5312 23.0626 11.5312C22.2728 11.5312 21.4967 11.7382 20.8118 12.1315L17.4484 14.0748C18.2855 14.3487 19.0608 14.7838 19.7308 15.3555L21.9373 14.0812C22.2795 13.8839 22.6676 13.78 23.0626 13.78C23.4576 13.78 23.8457 13.8839 24.1879 14.0812L27.4817 15.9832L22.9199 20.1138L24.0738 22.1078L29.5295 17.1656L33.7489 19.6034C34.0907 19.8007 34.3746 20.0844 34.5721 20.426C34.7696 20.7677 34.8738 21.1552 34.8742 21.5499V25.8041L27.6783 28.356L28.8226 30.3373L34.8742 28.1912V32.5944C34.8736 32.9878 34.77 33.3742 34.5737 33.7151C34.3773 34.056 34.0952 34.3396 33.7553 34.5377C33.752 34.5377 33.752 34.5408 33.7489 34.5408C33.7489 34.5408 31.8184 35.6567 31.7994 35.6662C31.2861 35.9413 30.686 36.0061 30.1258 35.8469C29.5657 35.6878 29.0893 35.3173 28.7972 34.8135L19.2268 18.234C18.6284 17.2049 17.6472 16.4543 16.4974 16.146C15.3475 15.8378 14.1225 15.9969 13.0896 16.5887L11.2572 17.6475L11.2477 17.6538C10.5654 18.0503 9.99879 18.6186 9.60443 19.3022C9.21007 19.9857 9.00168 20.7607 9.00003 21.5499V32.5944C9.00168 33.3836 9.21006 34.1585 9.60442 34.8421C9.99879 35.5257 10.5654 36.094 11.2477 36.4904L20.8118 42.0127C21.497 42.4053 22.2729 42.6119 23.0626 42.6119C23.8523 42.6119 24.6282 42.4053 25.3134 42.0127L28.642 40.0885C27.8043 39.8159 27.0286 39.3807 26.3595 38.8078L24.1879 40.0631C23.8454 40.2594 23.4574 40.3627 23.0626 40.3627C22.6678 40.3627 22.2799 40.2594 21.9373 40.0631L14.1262 35.5521L22.3557 32.6324L21.2114 30.6511L12.782 33.6437C12.6722 33.6819 12.5526 33.6811 12.4434 33.6412C12.3341 33.6013 12.2421 33.5249 12.1828 33.4249C12.1234 33.3249 12.1005 33.2075 12.1179 33.0925C12.1352 32.9776 12.1918 32.8721 12.278 32.7941L18.9542 26.7456L17.8035 24.7516L11.2477 30.6892V21.5499C11.2481 21.1552 11.3523 20.7677 11.5498 20.426C11.7474 20.0844 12.0313 19.8007 12.373 19.6034L12.3826 19.5971C12.3826 19.5971 14.2434 18.5224 14.256 18.5161C14.77 18.2342 15.3738 18.1646 15.9384 18.3222C16.503 18.4798 16.9835 18.852 17.2772 19.3593L26.8509 35.9389C27.4496 36.9668 28.4304 37.7163 29.5795 38.0239C30.7286 38.3315 31.9527 38.1723 32.9849 37.581L34.8742 36.4904C34.8775 36.4904 34.8775 36.4873 34.8806 36.4873C35.5622 36.091 36.128 35.5231 36.5218 34.8401C36.9156 34.1571 37.1236 33.3828 37.125 32.5944V21.5499C37.1234 20.7603 36.9147 19.985 36.5198 19.3014C36.1248 18.6177 35.5574 18.0496 34.8742 17.6538Z" fill="#0A0B0D"/>
<path d="M46.1895 21.3493H49.3141V22.5857C49.6681 22.1288 50.1321 21.7692 50.6629 21.5404C51.2665 21.2832 51.9177 21.1568 52.5737 21.1694C53.5373 21.1468 54.4878 21.3961 55.3162 21.8888C56.1057 22.3799 56.7347 23.0909 57.1259 23.9344C57.5702 24.8992 57.7892 25.9523 57.7664 27.0142C57.7905 28.0775 57.5552 29.1307 57.0808 30.0826C56.6479 30.9335 55.9811 31.6432 55.1588 32.1283C54.2913 32.6267 53.3043 32.8793 52.304 32.8589C51.7048 32.8671 51.1095 32.7603 50.5506 32.5441C50.0688 32.3652 49.6424 32.0629 49.3141 31.6674V37.2648H46.1895V21.3493ZM49.8985 29.2958C50.1575 29.5692 50.4694 29.787 50.8154 29.9358C51.1613 30.0846 51.5339 30.1614 51.9105 30.1614C52.2871 30.1614 52.6598 30.0846 53.0057 29.9358C53.3516 29.787 53.6636 29.5692 53.9225 29.2958C54.4536 28.6575 54.7263 27.8435 54.6869 27.0142C54.7285 26.1776 54.4559 25.3557 53.9225 24.7099C53.6636 24.4365 53.3516 24.2188 53.0057 24.07C52.6597 23.9212 52.2871 23.8445 51.9105 23.8445C51.534 23.8445 51.1613 23.9212 50.8154 24.07C50.4695 24.2188 50.1575 24.4365 49.8985 24.7099C49.3651 25.3557 49.0926 26.1776 49.1344 27.0142C49.0948 27.8435 49.3675 28.6575 49.8985 29.2958Z" fill="#0A0B0D"/>
<path d="M61.7902 32.1058C60.8959 31.6236 60.1558 30.899 59.6547 30.0152C59.1531 29.0944 58.8903 28.0627 58.8903 27.0142C58.8903 25.9656 59.1531 24.9339 59.6547 24.0131C60.156 23.1295 60.8961 22.4049 61.7902 21.9225C62.7413 21.4278 63.7977 21.1694 64.8699 21.1694C65.9421 21.1694 66.9984 21.4278 67.9496 21.9225C68.8435 22.4052 69.5836 23.1296 70.0851 24.0131C70.5867 24.9339 70.8494 25.9656 70.8494 27.0142C70.8494 28.0627 70.5867 29.0944 70.0851 30.0152C69.5838 30.8988 68.8437 31.6233 67.9496 32.1058C66.9984 32.6005 65.9421 32.8589 64.8699 32.8589C63.7977 32.8589 62.7413 32.6005 61.7902 32.1058ZM62.8242 29.2846C63.0881 29.5617 63.4054 29.7822 63.7571 29.9329C64.1087 30.0836 64.4873 30.1613 64.8699 30.1613C65.2525 30.1613 65.631 30.0836 65.9827 29.9329C66.3343 29.7822 66.6517 29.5617 66.9155 29.2846C67.4564 28.655 67.7377 27.8434 67.7024 27.0142C67.7401 26.1777 67.4589 25.3582 66.9155 24.7212C66.6517 24.4441 66.3343 24.2236 65.9827 24.0729C65.631 23.9222 65.2525 23.8445 64.8699 23.8445C64.4873 23.8445 64.1087 23.9222 63.7571 24.0729C63.4054 24.2236 63.0881 24.4441 62.8242 24.7212C62.2809 25.3582 61.9997 26.1777 62.0376 27.0142C62.0022 27.8434 62.2834 28.6551 62.8242 29.2846H62.8242Z" fill="#0A0B0D"/>
<path d="M72.7375 16.4262H75.862V32.679H72.7375V16.4262Z" fill="#0A0B0D"/>
<path d="M81.4367 32.589L77.3229 21.3493H80.515L82.8979 28.6551L85.2583 21.3493H88.4726L84.3591 32.6341L82.763 37.2648H79.7731L81.4367 32.589Z" fill="#0A0B0D"/>
<path d="M90.2598 31.274C89.3079 30.2175 88.8321 28.7976 88.8324 27.0142C88.8096 25.9523 89.0287 24.8991 89.4732 23.9344C89.8679 23.0862 90.5055 22.3743 91.3052 21.8888C92.1648 21.3921 93.1451 21.1431 94.1375 21.1694C94.7655 21.1606 95.3888 21.2791 95.9697 21.5178C96.4756 21.7197 96.9208 22.0488 97.2622 22.4732V21.3493H100.409V33.3534C100.432 33.8838 100.339 34.4127 100.137 34.9037C99.9355 35.3947 99.6294 35.836 99.2403 36.1971C98.4611 36.9087 97.4271 37.2646 96.1383 37.2648H90.4285V34.8146H95.6437C95.8653 34.8211 96.0858 34.7793 96.2896 34.6919C96.4934 34.6046 96.6758 34.4738 96.8239 34.3088C97.1379 33.9531 97.3029 33.4902 97.2848 33.0161V31.5326C96.9707 31.9754 96.5328 32.3156 96.026 32.5103C95.441 32.7485 94.8141 32.867 94.1825 32.8589C92.5192 32.8589 91.2116 32.3306 90.2598 31.274ZM92.6653 29.307C92.9162 29.5898 93.2269 29.8132 93.5749 29.961C93.9229 30.1087 94.2994 30.1772 94.6772 30.1613C95.0564 30.1764 95.4344 30.1076 95.7841 29.9599C96.1338 29.8123 96.4466 29.5893 96.7003 29.307C97.2348 28.6663 97.5078 27.8474 97.4647 27.0142C97.5063 26.1776 97.2337 25.3557 96.7003 24.7099C96.4482 24.4248 96.136 24.1993 95.7861 24.0496C95.4362 23.8999 95.0574 23.8298 94.6772 23.8445C94.2984 23.829 93.9211 23.8988 93.5729 24.0485C93.2247 24.1983 92.9145 24.4243 92.6653 24.7099C92.1384 25.3587 91.8702 26.1794 91.9122 27.0141C91.8687 27.8456 92.1373 28.6633 92.6653 29.307Z" fill="#0A0B0D"/>
<path d="M105.197 32.1058C104.303 31.6236 103.563 30.899 103.062 30.0152C102.56 29.0944 102.298 28.0627 102.298 27.0142C102.298 25.9656 102.56 24.9339 103.062 24.0131C103.563 23.1295 104.303 22.4049 105.197 21.9225C106.149 21.4278 107.205 21.1694 108.277 21.1694C109.349 21.1694 110.406 21.4278 111.357 21.9225C112.251 22.4052 112.991 23.1296 113.492 24.0131C113.994 24.9339 114.257 25.9656 114.257 27.0142C114.257 28.0627 113.994 29.0944 113.492 30.0152C112.991 30.8988 112.251 31.6233 111.357 32.1058C110.406 32.6005 109.349 32.8589 108.277 32.8589C107.205 32.8589 106.149 32.6005 105.197 32.1058ZM106.231 29.2846C106.495 29.5617 106.813 29.7822 107.164 29.9329C107.516 30.0836 107.895 30.1613 108.277 30.1613C108.66 30.1613 109.038 30.0836 109.39 29.9329C109.742 29.7822 110.059 29.5617 110.323 29.2846C110.864 28.655 111.145 27.8434 111.11 27.0142C111.147 26.1777 110.866 25.3582 110.323 24.7212C110.059 24.4441 109.742 24.2236 109.39 24.0729C109.038 23.9222 108.66 23.8445 108.277 23.8445C107.895 23.8445 107.516 23.9222 107.164 24.0729C106.813 24.2236 106.495 24.4441 106.231 24.7212C105.688 25.3582 105.407 26.1777 105.445 27.0142C105.409 27.8434 105.691 28.6551 106.231 29.2846Z" fill="#0A0B0D"/>
<path d="M115.965 21.3493H119.112V22.9228C119.43 22.3651 119.908 21.915 120.483 21.6303C121.126 21.3133 121.835 21.1552 122.551 21.1694C123.327 21.1532 124.092 21.3474 124.766 21.7314C125.4 22.1037 125.915 22.6497 126.249 23.305C126.611 24.0222 126.793 24.8171 126.778 25.6204V32.679H123.63V26.3172C123.654 25.6944 123.437 25.0864 123.024 24.6201C122.825 24.4022 122.581 24.2301 122.31 24.1156C122.038 24.0011 121.744 23.947 121.45 23.9569C121.134 23.9463 120.82 24.0041 120.529 24.1263C120.238 24.2485 119.977 24.4323 119.764 24.665C119.32 25.161 119.087 25.8097 119.112 26.4746V32.679H115.965V21.3493Z" fill="#0A0B0D"/>
<path d="M134.331 16.9433H136.511L144.626 29.7566V16.9433H146.537V32.679H144.334L136.241 19.9105V32.679H134.331V16.9433Z" fill="#0A0B0D"/>
<path d="M151.617 16.6961V19.2137H149.549V16.6961L151.617 16.6961ZM149.684 21.3493H151.482V32.679H149.684V21.3493Z" fill="#0A0B0D"/>
<path d="M156.405 32.0945C155.589 31.5949 154.937 30.8684 154.528 30.004C154.106 29.0638 153.887 28.0448 153.887 27.0142C153.887 25.9835 154.106 24.9646 154.528 24.0244C154.937 23.16 155.589 22.4336 156.405 21.9338C157.295 21.4067 158.316 21.1418 159.35 21.1694C160.111 21.1687 160.861 21.3457 161.542 21.6865C162.174 21.9764 162.715 22.4353 163.104 23.0128V21.3493H164.902V33.1735C164.915 33.9157 164.733 34.6482 164.374 35.2979C164.028 35.9131 163.513 36.4163 162.89 36.7478C162.222 37.1 161.476 37.2778 160.721 37.2648H155.371V35.7137H160.609C160.944 35.7252 161.278 35.6649 161.588 35.537C161.898 35.4091 162.177 35.2165 162.407 34.972C162.876 34.4661 163.126 33.7956 163.104 33.1061V31.1055C162.781 31.6786 162.274 32.126 161.665 32.3755C160.939 32.7057 160.148 32.8708 159.35 32.8589C158.316 32.8867 157.295 32.6218 156.405 32.0945ZM156.765 30.0939C157.11 30.4738 157.535 30.7733 158.009 30.9714C158.483 31.1695 158.994 31.2613 159.507 31.2403C160.02 31.2617 160.531 31.1689 161.003 30.9687C161.475 30.7685 161.897 30.4659 162.238 30.0827C162.92 29.3109 163.261 28.288 163.261 27.0142C163.261 25.7406 162.92 24.7178 162.238 23.9457C161.897 23.5626 161.475 23.2599 161.003 23.0597C160.531 22.8595 160.02 22.7667 159.507 22.788C158.994 22.7671 158.483 22.8589 158.009 23.057C157.535 23.255 157.11 23.5546 156.765 23.9344C156.075 24.6988 155.731 25.7254 155.731 27.0142C155.731 28.3032 156.075 29.3297 156.765 30.0939Z" fill="#0A0B0D"/>
<path d="M168.049 16.6961H169.848V23.5298C170.104 22.8 170.604 22.1808 171.264 21.7764C171.963 21.3609 172.766 21.1505 173.579 21.1694C174.151 21.1457 174.722 21.2459 175.251 21.4632C175.781 21.6805 176.257 22.0097 176.648 22.4283C177.42 23.2678 177.805 24.3768 177.805 25.7553V32.679H176.007V26.0475C176.049 25.1954 175.772 24.3583 175.232 23.6984C174.977 23.4062 174.66 23.1749 174.304 23.0213C173.948 22.8676 173.562 22.7956 173.175 22.8105C172.722 22.7979 172.273 22.8861 171.859 23.0688C171.444 23.2516 171.076 23.5242 170.781 23.867C170.142 24.6173 169.809 25.5802 169.848 26.5645V32.679H168.049V16.6961Z" fill="#0A0B0D"/>
<path d="M183.38 17.73V21.3493H186.865V22.9454H183.38V29.0822C183.348 29.6186 183.525 30.1467 183.875 30.5546C184.046 30.7321 184.252 30.871 184.481 30.9621C184.709 31.0532 184.955 31.0944 185.201 31.0829H186.864V32.679H185.134C184.661 32.7021 184.188 32.6294 183.744 32.4652C183.299 32.301 182.893 32.0488 182.549 31.7236C181.904 31.0868 181.582 30.2213 181.582 29.1272V22.9453H179.222V21.3493H181.582V17.73H183.38Z" fill="#0A0B0D"/>
<path d="M190.057 22.9454H187.696V21.3493H190.057V20.2028C190.057 19.1238 190.375 18.2696 191.012 17.6402C191.356 17.3177 191.761 17.0679 192.203 16.9057C192.645 16.7434 193.116 16.6722 193.586 16.6961H195.384V18.2921H193.676C193.431 18.2805 193.186 18.3205 192.958 18.4096C192.729 18.4987 192.522 18.6348 192.35 18.8092C192.004 19.1972 191.826 19.7064 191.855 20.2253V21.3493H195.384V22.9454H191.855V32.679H190.057V22.9454Z" fill="#0A0B0D"/>
<path d="M203.365 23.4061C202.825 22.9341 202.083 22.6981 201.139 22.6981C200.381 22.6773 199.637 22.9107 199.026 23.3612C198.759 23.5421 198.536 23.7803 198.373 24.0583C198.21 24.3363 198.11 24.6473 198.082 24.9685H196.374C196.429 24.2606 196.691 23.5845 197.127 23.0241C197.583 22.4355 198.178 21.9684 198.858 21.664C199.588 21.3305 200.382 21.1616 201.184 21.1694C202.653 21.1694 203.818 21.5516 204.68 22.3159C205.108 22.6984 205.446 23.1709 205.669 23.6995C205.893 24.2281 205.996 24.7997 205.972 25.3731V32.679H204.174V30.7233C203.855 31.3876 203.331 31.9316 202.679 32.2744C201.953 32.6716 201.135 32.8731 200.308 32.8589C199.124 32.8589 198.172 32.5479 197.453 31.9259C197.1 31.6006 196.822 31.2036 196.636 30.7616C196.45 30.3196 196.361 29.843 196.375 29.3637C196.389 28.8845 196.505 28.4138 196.716 27.9833C196.927 27.5528 197.228 27.1725 197.599 26.8681C198.416 26.2313 199.513 25.9128 200.892 25.9126H203.455C203.649 25.9275 203.843 25.8672 203.994 25.744C204.054 25.688 204.1 25.6199 204.131 25.5443C204.163 25.4687 204.177 25.3873 204.174 25.3057C204.189 24.9488 204.124 24.593 203.984 24.2643C203.844 23.9357 203.633 23.6425 203.365 23.4061ZM198.858 30.8132C199.354 31.1799 199.962 31.3627 200.577 31.3303C201.716 31.3303 202.6 30.9968 203.23 30.3298C203.859 29.6632 204.174 28.7453 204.174 27.5761V27.2839H201.004C200.282 27.2452 199.566 27.4467 198.97 27.8571C198.727 28.0366 198.531 28.2727 198.4 28.545C198.269 28.8173 198.206 29.1174 198.217 29.4195C198.207 29.6858 198.26 29.9507 198.371 30.1929C198.482 30.435 198.649 30.6475 198.858 30.8132Z" fill="#0A0B0D"/>
<path d="M208.715 16.6961H210.513V32.679H208.715V16.6961Z" fill="#0A0B0D"/>
<path d="M213.66 16.6961H215.458V32.679H213.66V16.6961Z" fill="#0A0B0D"/>
</svg>
