<svg width="513" height="565" viewBox="0 0 513 565" fill="none" xmlns="http://www.w3.org/2000/svg">
<path d="M471.578 111.341L297.391 10.94C284.823 3.88194 270.839 0 256.323 0C241.984 0 227.823 3.70549 215.255 10.94L154.006 46.2305C169.23 51.1711 183.391 59.1115 195.606 69.5222L235.789 46.4069C241.984 42.8779 249.065 40.9369 256.323 40.9369C263.581 40.9369 270.662 42.8779 276.857 46.4069L336.866 80.9916L253.668 155.984L274.733 192.156L374.217 102.342L451.044 146.632C457.239 150.161 462.373 155.454 466.09 161.63C469.63 167.806 471.578 174.864 471.578 182.099V259.385L340.407 305.792L361.295 341.788L471.578 302.792V382.725C471.578 389.959 469.63 396.841 466.09 403.017C462.55 409.193 457.416 414.31 451.221 418.015C451.221 418.015 451.221 418.015 451.044 418.015C451.044 418.015 415.817 438.307 415.463 438.484C406.081 443.424 395.106 444.66 385.016 441.836C374.748 439.013 366.075 432.131 360.764 423.132L186.401 121.928C175.425 103.225 157.547 89.6377 136.658 83.9912C115.77 78.3448 93.2888 81.3445 74.5248 92.108L41.0683 111.341L40.8913 111.518C28.5 118.752 18.0559 128.987 10.9752 141.515C3.71739 153.866 0 167.983 0 182.275V382.901C0 397.194 3.8944 411.31 10.9752 423.662C18.2329 436.013 28.5 446.424 40.8913 453.659L215.255 554.06C227.823 561.118 241.807 565 256.323 565C270.662 565 284.823 561.294 297.391 554.06L358.109 519.122C342.885 514.182 328.724 506.241 316.509 495.831L276.857 518.593C270.662 522.122 263.581 524.063 256.323 524.063C249.065 524.063 241.984 522.122 235.789 518.593L93.4658 436.719L243.401 383.607L222.512 347.611L69.0373 401.782C67.0901 402.487 64.7888 402.487 62.8416 401.782C60.8944 401.076 59.1242 399.664 58.0621 397.9C57 396.135 56.6459 394.018 56.823 391.9C57.177 389.783 58.2391 387.842 59.6553 386.43L181.267 276.501L160.556 240.328L41.0683 348.14V182.099C41.0683 174.864 43.0155 167.806 46.5559 161.63C50.0963 155.454 55.4068 150.337 61.6025 146.632L61.7795 146.455C61.7795 146.455 95.7671 126.869 95.9441 126.869C105.326 121.752 116.301 120.517 126.568 123.34C136.835 126.163 145.686 133.045 150.997 142.22L325.537 443.424C336.512 462.128 354.391 475.715 375.279 481.362C396.168 487.008 418.472 484.008 437.413 473.245L471.932 453.482C471.932 453.482 471.932 453.482 472.109 453.482C484.5 446.248 494.767 436.013 502.025 423.485C509.283 411.134 513 397.017 513 382.725V182.099C513 167.806 509.106 153.69 502.025 141.338C494.413 128.81 484.146 118.576 471.578 111.341Z" fill="#6433B9" fill-opacity="0.14"/>
</svg>
