<svg width="31" height="46" viewBox="0 0 31 46" fill="none" xmlns="http://www.w3.org/2000/svg">
<path d="M3.64404 5.9325V14.1972C3.64404 16.6765 5.21863 18.9333 7.56201 19.8131L15.4756 22.8219L18.2979 15.2481L15.4756 5.9325H3.64404Z" fill="#FAF7FE"/>
<path d="M27.3071 14.1972V5.9325H15.4756V22.8219H15.4757L23.3893 19.8132C25.7326 18.9333 27.3071 16.6765 27.3071 14.1972Z" fill="#EAE0FB"/>
<path d="M7.56201 25.8307C5.21862 26.7105 3.64404 28.9672 3.64404 31.4466V38.2535C4.47493 37.1598 9.97526 36.6131 15.4756 36.6131L19.005 30.2539L15.4756 22.8219L7.56201 25.8307Z" fill="#FAF7FE"/>
<path d="M15.4756 36.613C20.9759 36.613 26.4762 37.1598 27.3071 38.2534V31.4465C27.3071 28.9672 25.7326 26.7104 23.3892 25.8305L15.4757 22.8219H15.4756V36.613Z" fill="#EAE0FB"/>
<path d="M10.0711 31.3471C8.31124 32.0904 6.72508 33.1274 5.36616 34.4107C4.26463 35.4508 3.64404 36.8936 3.64404 38.3998V39.2827H15.4756L18.3621 33.6697L15.4756 29.0645L10.0711 31.3471Z" fill="#E1F1F5"/>
<path d="M27.3071 38.3999C27.3071 36.8936 26.6865 35.4508 25.585 34.4108C24.2261 33.1275 22.6399 32.0906 20.8801 31.3472L15.4756 29.0645V39.2828H27.3071V38.3999Z" fill="#BCE0E8"/>
<path d="M3.64398 38.231L0.157715 41.6793V45.2524H15.4755L18.2335 41.8261L15.4755 38.231H3.64398Z" fill="#D0BAF5"/>
<path d="M30.7731 41.6793L27.2868 38.231H15.4756V45.2524H30.7731V41.6793Z" fill="#7B3FE4"/>
<path d="M3.64398 7.41276L0.157715 3.96439V0.391357H15.4755L18.2335 3.81759L15.4755 7.41276H3.64398Z" fill="#D0BAF5"/>
<path d="M30.7731 3.96439L27.2868 7.41276H15.4756V0.391357H30.7731V3.96439Z" fill="#7B3FE4"/>
</svg>
