<svg width="80" height="80" viewBox="0 0 80 80" fill="none" xmlns="http://www.w3.org/2000/svg">
<path d="M64.9992 40V55.8203L52.4992 62.8515L48.9277 55.8203L52.4992 47.0312L57.8358 40.5141L64.9992 40Z" fill="#7B3FE4"/>
<path d="M64.9992 24.1797V40L52.4992 47.0312L48.9277 40L52.4992 31.2109L53.392 25.184L64.9992 24.1797Z" fill="#D0BAF5"/>
<path d="M39.9992 24.3477L36.4277 33.686L39.9992 40.1679L46.2492 47.1992H52.4992V31.3789L46.2492 24.3477H39.9992Z" fill="#250A61"/>
<path d="M39.9992 24.3477V40.1679L34.5304 46.7597L27.4992 47.1992L23.9277 38.4101L27.4992 31.3789L33.7492 24.3477H39.9992Z" fill="#5C25D2"/>
<path d="M15 24.1797V40L21.25 47.0312H27.5V31.2109L22.5605 24.9167L15 24.1797Z" fill="#EAE0FB"/>
<path d="M52.4992 47.0312V62.8515L39.9992 70L36.4277 62.8515L39.9992 54.0625L45.3958 47.5114L52.4992 47.0312Z" fill="#D0BAF5"/>
<path d="M52.5 17.1484L41.9452 17.5609L40 24.1797L52.5 31.2109L65 24.1797L52.5 17.1484Z" fill="#EAE0FB"/>
<path d="M27.5 17.1484L15 24.1797L27.5 31.2109L40 24.1797L34.2787 17.446L27.5 17.1484Z" fill="#D0BAF5"/>
<path d="M27.4992 47.0312L23.9277 54.0625L27.4992 62.8515L39.9992 70V54.0625L35.3117 47.9102L27.4992 47.0312Z" fill="#EAE0FB"/>
<path d="M15 40V55.8203L27.5 62.8515V47.0312L15 40Z" fill="#7B3FE4"/>
<path d="M40 40L27.5 47.0312L40 54.0625L52.5 47.0312L40 40Z" fill="#3B1293"/>
<path d="M39.1141 10.2317L27.5 17.1485L40 24.1798L52.5 17.1485L40.8859 10.2317C40.3371 9.92275 39.6629 9.92275 39.1141 10.2317Z" fill="#7B3FE4"/>
</svg>
