<svg width="80" height="79" viewBox="0 0 81 80" fill="none" xmlns="http://www.w3.org/2000/svg">
<path d="M49.4862 26.1413C49.4862 27.1114 48.7224 27.8736 47.7504 27.8736H33.7489C32.7769 27.8736 32.0132 27.1114 32.0132 26.1413C32.0132 25.1712 32.7769 24.4089 33.7489 24.4089H47.7504C48.7224 24.4089 49.4862 25.1712 49.4862 26.1413Z" fill="#BCE0E8"/>
<path d="M49.4862 57.3234C49.4862 58.2935 48.7224 59.0557 47.7504 59.0557H33.7489C32.7769 59.0557 32.0132 58.2935 32.0132 57.3234C32.0132 56.3533 32.7769 55.5911 33.7489 55.5911H47.7504C48.7224 55.5911 49.4862 56.3533 49.4862 57.3234Z" fill="#BCE0E8"/>
<path d="M49.4862 57.3234C49.4862 58.2935 48.7225 59.0557 47.7505 59.0557H40.6919V55.5911H47.7505C48.7225 55.5911 49.4862 56.3533 49.4862 57.3234Z" fill="#E1F1F5"/>
<path d="M47.7505 27.8736H40.6919V24.4089H47.7505C48.7225 24.4089 49.4862 25.1712 49.4862 26.1413C49.4862 27.1114 48.7225 27.8736 47.7505 27.8736Z" fill="#E1F1F5"/>
<path d="M25.0706 36.5353V43.4647C25.0706 44.4348 24.3069 45.197 23.3348 45.197C22.3628 45.197 21.5991 44.4348 21.5991 43.4647V36.5353C21.5991 35.5652 22.3628 34.803 23.3348 34.803C24.3069 34.803 25.0706 35.5652 25.0706 36.5353Z" fill="#BCE0E8"/>
<path d="M59.9007 36.5353V43.4647C59.9007 44.4348 59.1369 45.197 58.1649 45.197C57.1929 45.197 56.4292 44.4348 56.4292 43.4647V36.5353C56.4292 35.5652 57.1929 34.803 58.1649 34.803C59.1369 34.803 59.9007 35.5652 59.9007 36.5353Z" fill="#E1F1F5"/>
<path d="M35.2418 17.6182L29.4098 17.4796L23.3347 24.409L19.8633 31.1651L23.3347 38.2677C23.6472 38.2677 23.9249 38.1984 24.2026 38.0251L34.6517 31.858C34.7211 31.8234 34.7905 31.7541 34.86 31.7194C35.2418 31.373 35.4848 30.8533 35.4848 30.3682V18.4844C35.4848 18.1725 35.4154 17.8607 35.2418 17.6182Z" fill="#7B3FE4"/>
<path d="M17.2596 17.4796L11.4276 17.6182C11.254 17.8954 11.1846 18.1725 11.1846 18.4844V30.3682C11.1846 30.8533 11.4276 31.373 11.8094 31.7194C11.8789 31.7541 22.4668 38.0251 22.4668 38.0251C22.7445 38.1984 23.0222 38.2677 23.3347 38.2677V24.409L17.2596 17.4796Z" fill="#D0BAF5"/>
<path d="M35.2419 17.6182L23.3348 24.409L11.4277 17.6182C11.4624 17.5836 11.4972 17.5143 11.5319 17.4797C11.6707 17.2718 11.8443 17.1332 12.0526 16.9946L22.467 10.6773C22.7447 10.5041 23.0571 10.4348 23.3348 10.4348C23.6125 10.4348 23.925 10.5041 24.2027 10.6773L34.617 16.9946C34.8253 17.1332 34.9989 17.3064 35.1378 17.4797C35.1725 17.5143 35.2072 17.5836 35.2419 17.6182Z" fill="#FAF7FE"/>
<path d="M35.2416 17.6182L23.3345 24.409V10.4348C23.6122 10.4348 23.9246 10.5041 24.2023 10.6773L34.6167 16.9946C34.825 17.1332 34.9986 17.3064 35.1374 17.4797C35.1721 17.5143 35.2068 17.5836 35.2416 17.6182Z" fill="#EAE0FB"/>
<path d="M35.2418 48.8003L29.4098 48.6617L23.3347 55.5911L19.8633 62.4627L23.3347 69.5653C23.6472 69.5653 23.9249 69.496 24.2026 69.3227L34.6517 63.1556C34.7211 63.121 34.7905 63.0517 34.86 63.017C35.2418 62.6706 35.4848 62.1509 35.4848 61.6658V49.6665C35.4848 49.3547 35.4154 49.0429 35.2418 48.8003Z" fill="#7B3FE4"/>
<path d="M17.2596 48.6617L11.4276 48.8003C11.254 49.0775 11.1846 49.3547 11.1846 49.6665V61.6658C11.1846 62.1509 11.4276 62.6706 11.8094 63.017C11.8789 63.0517 22.4668 69.3227 22.4668 69.3227C22.7445 69.496 23.0222 69.5653 23.3347 69.5653V55.5911L17.2596 48.6617Z" fill="#D0BAF5"/>
<path d="M35.2419 48.8004L23.3348 55.5911L11.4277 48.8004C11.4624 48.7657 11.4972 48.6964 11.5319 48.6618C11.6707 48.4539 11.8443 48.3153 12.0526 48.1767L22.467 41.9749C22.7447 41.8017 23.0571 41.7324 23.3348 41.7324C23.6125 41.7324 23.925 41.8017 24.2027 41.9749L34.617 48.1767C34.8253 48.3153 34.9989 48.4885 35.1378 48.6618C35.1725 48.6964 35.2072 48.7657 35.2419 48.8004Z" fill="#FAF7FE"/>
<path d="M35.2416 48.8004L23.3345 55.5911V41.7324C23.6122 41.7324 23.9246 41.8017 24.2023 41.9749L34.6167 48.1767C34.825 48.3153 34.9986 48.4885 35.1374 48.6618C35.1721 48.6964 35.2068 48.7657 35.2416 48.8004Z" fill="#EAE0FB"/>
<path d="M70.0719 48.8003L64.2399 48.6617L58.1648 55.5911L54.6934 62.4627L58.1648 69.5653C58.4772 69.5653 58.755 69.496 59.0327 69.3227L69.4818 63.1556C69.5512 63.121 69.6206 63.0517 69.69 63.017C70.0719 62.6706 70.3149 62.1509 70.3149 61.6658V49.6665C70.3149 49.3547 70.2455 49.0429 70.0719 48.8003Z" fill="#7B3FE4"/>
<path d="M52.0897 48.6617L46.2577 48.8003C46.0841 49.0775 46.0146 49.3547 46.0146 49.6665V61.6658C46.0146 62.1509 46.2576 62.6706 46.6395 63.017C46.7089 63.0517 57.2969 69.3227 57.2969 69.3227C57.5746 69.496 57.8523 69.5653 58.1647 69.5653V55.5911L52.0897 48.6617Z" fill="#D0BAF5"/>
<path d="M70.072 48.8004L58.1649 55.5911L46.2578 48.8004C46.2925 48.7657 46.3272 48.6964 46.362 48.6618C46.5008 48.4539 46.6744 48.3153 46.8827 48.1767L57.297 41.9749C57.5748 41.8017 57.8872 41.7324 58.1649 41.7324C58.4426 41.7324 58.755 41.8017 59.0328 41.9749L69.4471 48.1767C69.6554 48.3153 69.829 48.4885 69.9678 48.6618C70.0026 48.6964 70.0373 48.7657 70.072 48.8004Z" fill="#FAF7FE"/>
<path d="M70.0721 48.8004L58.165 55.5911V41.7324C58.4428 41.7324 58.7552 41.8017 59.0329 41.9749L69.4473 48.1767C69.6556 48.3153 69.8291 48.4885 69.968 48.6618C70.0027 48.6964 70.0374 48.7657 70.0721 48.8004Z" fill="#EAE0FB"/>
<path d="M70.0719 17.6182L64.2399 17.4796L58.1648 24.409L54.6934 31.1651L58.1648 38.2677C58.4772 38.2677 58.755 38.1984 59.0327 38.0251L69.4818 31.858C69.5512 31.8234 69.6206 31.7541 69.69 31.7194C70.0719 31.373 70.3149 30.8533 70.3149 30.3682V18.4844C70.3149 18.1725 70.2455 17.8607 70.0719 17.6182Z" fill="#7B3FE4"/>
<path d="M52.0897 17.4796L46.2577 17.6182C46.0841 17.8954 46.0146 18.1725 46.0146 18.4844V30.3682C46.0146 30.8533 46.2576 31.373 46.6395 31.7194C46.7089 31.7541 57.2969 38.0251 57.2969 38.0251C57.5746 38.1984 57.8523 38.2677 58.1647 38.2677V24.409L52.0897 17.4796Z" fill="#D0BAF5"/>
<path d="M70.072 17.6182L58.1649 24.409L46.2578 17.6182C46.2925 17.5836 46.3272 17.5143 46.362 17.4797C46.5008 17.2718 46.6744 17.1332 46.8827 16.9946L57.297 10.6773C57.5748 10.5041 57.8872 10.4348 58.1649 10.4348C58.4426 10.4348 58.755 10.5041 59.0328 10.6773L69.4471 16.9946C69.6554 17.1332 69.829 17.3064 69.9678 17.4797C70.0026 17.5143 70.0373 17.5836 70.072 17.6182Z" fill="#FAF7FE"/>
<path d="M70.0721 17.6182L58.165 24.409V10.4348C58.4428 10.4348 58.7552 10.5041 59.0329 10.6773L69.4473 16.9946C69.6556 17.1332 69.8291 17.3064 69.968 17.4797C70.0027 17.5143 70.0374 17.5836 70.0721 17.6182Z" fill="#EAE0FB"/>
</svg>
