<svg width="81" height="80" viewBox="0 0 81 80" fill="none" xmlns="http://www.w3.org/2000/svg">
<g clip-path="url(#clip0_741_28921)">
<path d="M42.7425 28.4307V35.6828C42.7425 36.6812 41.9495 37.4661 40.9396 37.4661C39.9297 37.4661 39.1367 36.6812 39.1367 35.6828V28.4307C39.1367 27.4318 39.9297 26.6475 40.9396 26.6475C41.9495 26.6475 42.7425 27.4318 42.7425 28.4307Z" fill="#E1F1F5"/>
<path d="M42.7426 28.4307V35.6828C42.7426 36.6812 41.9496 37.4661 40.9397 37.4661V26.6475C41.9496 26.6475 42.7426 27.4318 42.7426 28.4307Z" fill="#BCE0E8"/>
<path d="M21.3187 63.2192C20.7552 63.2192 20.2026 62.9596 19.8501 62.472C19.2712 61.6709 19.4594 60.5582 20.2693 59.9851L29.0748 53.8481C29.8847 53.2769 31.0115 53.4617 31.589 54.2628C32.1679 55.0639 31.9796 56.1766 31.1697 56.7497L22.3642 62.8867C22.0473 63.1115 21.6811 63.2192 21.3187 63.2192Z" fill="#E1F1F5"/>
<path d="M60.5605 63.2192C60.1976 63.2192 59.8319 63.1115 59.515 62.8867L50.7095 56.7497C49.8996 56.1766 49.7108 55.0639 50.2902 54.2628C50.8696 53.4632 51.9964 53.2788 52.8044 53.8481L61.6099 59.9852C62.4198 60.5582 62.608 61.6709 62.0291 62.472C61.6765 62.9596 61.1239 63.2192 60.5605 63.2192Z" fill="#BCE0E8"/>
<path d="M53.3074 41.1752L47.2499 41.0326L40.9398 48.1657L37.334 55.1206L40.9398 62.432C41.2642 62.432 41.5525 62.3605 41.8412 62.1822L52.6947 55.8339C52.767 55.7981 52.8388 55.7271 52.9111 55.6913C53.3074 55.3347 53.5599 54.7997 53.5599 54.3004V42.0668C53.5599 41.7459 53.4876 41.425 53.3074 41.1752Z" fill="#AA84ED"/>
<path d="M34.6294 41.0326L28.5719 41.1752C28.3916 41.4608 28.3193 41.7459 28.3193 42.0668V54.3C28.3193 54.7997 28.5719 55.3347 28.9682 55.6913C29.0405 55.7266 40.0381 62.1822 40.0381 62.1822C40.3268 62.3605 40.6151 62.432 40.9395 62.432V48.1657L34.6294 41.0326Z" fill="#D0BAF5"/>
<path d="M53.3072 41.1753L40.9396 48.1658L28.572 41.1753C28.6077 41.14 28.6439 41.0684 28.68 41.0327C28.8241 40.8186 29.0044 40.676 29.2209 40.5335L40.0382 34.1494C40.3269 33.9711 40.6509 33.8995 40.9396 33.8995C41.2284 33.8995 41.5523 33.9711 41.8411 34.1494L52.6584 40.5335C52.8748 40.676 53.0551 40.8544 53.1992 41.0327C53.2354 41.0684 53.2711 41.14 53.3072 41.1753Z" fill="#FAF7FE"/>
<path d="M53.3073 41.1753L40.9397 48.1658V33.8995C41.2284 33.8995 41.5524 33.9711 41.8411 34.1494L52.6584 40.5335C52.8749 40.676 53.0552 40.8544 53.1993 41.0327C53.2355 41.0684 53.2711 41.14 53.3073 41.1753Z" fill="#EAE0FB"/>
<path d="M24.5935 65.9986V67.7819C24.5935 68.7804 23.8005 69.5652 22.7906 69.5652H11.9733C10.9634 69.5652 10.1704 68.7804 10.1704 67.7819V65.9986C10.1704 62.0754 13.4156 58.8655 17.3819 58.8655C19.3651 58.8655 21.168 59.6498 22.4662 60.9697C23.8005 62.2537 24.5935 64.037 24.5935 65.9986Z" fill="#EAE0FB"/>
<path d="M24.5934 65.9986V67.7819C24.5934 68.7804 23.8004 69.5652 22.7905 69.5652H17.3818V58.8655C19.365 58.8655 21.1679 59.6498 22.4661 60.9697C23.8004 62.2537 24.5934 64.037 24.5934 65.9986Z" fill="#D0BAF5"/>
<path d="M22.7907 53.5156C22.7907 56.4757 20.3751 58.8655 17.382 58.8655C14.389 58.8655 11.9734 56.4757 11.9734 53.5156C11.9734 50.5551 14.389 48.1658 17.382 48.1658C20.3751 48.1658 22.7907 50.5551 22.7907 53.5156Z" fill="#EAE0FB"/>
<path d="M22.7905 53.5156C22.7905 56.4757 20.3749 58.8655 17.3818 58.8655V48.1658C20.3749 48.1658 22.7905 50.5551 22.7905 53.5156Z" fill="#D0BAF5"/>
<path d="M71.709 65.9986V67.7819C71.709 68.7804 70.916 69.5652 69.9061 69.5652H59.0888C58.0789 69.5652 57.2859 68.7804 57.2859 67.7819V65.9986C57.2859 62.0754 60.5311 58.8655 64.4974 58.8655C66.4806 58.8655 68.2835 59.6498 69.5817 60.9697C70.916 62.2537 71.709 64.037 71.709 65.9986Z" fill="#EAE0FB"/>
<path d="M71.7089 65.9986V67.7819C71.7089 68.7804 70.9159 69.5652 69.906 69.5652H64.4973V58.8655C66.4805 58.8655 68.2834 59.6498 69.5815 60.9697C70.9159 62.2537 71.7089 64.037 71.7089 65.9986Z" fill="#D0BAF5"/>
<path d="M69.9059 53.5156C69.9059 56.4757 67.4903 58.8655 64.4973 58.8655C61.5042 58.8655 59.0886 56.4757 59.0886 53.5156C59.0886 50.5551 61.5042 48.1658 64.4973 48.1658C67.4903 48.1658 69.9059 50.5551 69.9059 53.5156Z" fill="#EAE0FB"/>
<path d="M69.906 53.5156C69.906 56.4757 67.4904 58.8655 64.4973 58.8655V48.1658C67.4904 48.1658 69.906 50.5551 69.906 53.5156Z" fill="#D0BAF5"/>
<path d="M48.1511 26.6474V28.4307C48.1511 29.4292 47.3581 30.214 46.3482 30.214H35.5309C34.521 30.214 33.728 29.4292 33.728 28.4307V26.6474C33.728 22.7242 36.9732 19.5143 40.9396 19.5143C42.9227 19.5143 44.7256 20.2987 46.0238 21.6185C47.3581 22.9025 48.1511 24.6858 48.1511 26.6474Z" fill="#EAE0FB"/>
<path d="M48.1512 26.6474V28.4307C48.1512 29.4292 47.3582 30.214 46.3484 30.214H40.9397V19.5143C42.9229 19.5143 44.7258 20.2987 46.0239 21.6185C47.3582 22.9025 48.1512 24.6858 48.1512 26.6474Z" fill="#D0BAF5"/>
<path d="M46.3483 14.0455C46.3483 17.0056 43.9327 19.5143 40.9397 19.5143C37.9466 19.5143 35.531 17.0056 35.531 14.0455C35.531 11.085 37.9466 8.69568 40.9397 8.69568C43.9327 8.69568 46.3483 11.085 46.3483 14.0455Z" fill="#EAE0FB"/>
<path d="M46.3484 14.0455C46.3484 17.0056 43.9328 19.5143 40.9397 19.5143V8.69568C43.9328 8.69568 46.3484 11.085 46.3484 14.0455Z" fill="#D0BAF5"/>
</g>
<defs>
<clipPath id="clip0_741_28921">
<rect width="61.5385" height="60.8696" fill="white" transform="translate(10.1704 8.69568)"/>
</clipPath>
</defs>
</svg>
