<svg width="24" height="24" viewBox="0 0 24 24" fill="none" xmlns="http://www.w3.org/2000/svg">
<g clip-path="url(#clip0_927_34485)">
<path d="M4.98667 11.4073C4.9867 11.2731 5.01318 11.1402 5.06461 11.0163C5.11603 10.8923 5.19138 10.7798 5.28633 10.6851C5.38128 10.5905 5.49397 10.5155 5.61791 10.4646C5.74185 10.4137 5.87461 10.3878 6.00856 10.3884L7.70275 10.394C7.97288 10.394 8.23195 10.5015 8.42296 10.6929C8.61397 10.8842 8.72128 11.1438 8.72128 11.4144V17.8329C8.91209 17.7762 9.15629 17.7158 9.42501 17.6524C9.61119 17.6085 9.7771 17.5029 9.89587 17.3527C10.0146 17.2025 10.0793 17.0166 10.0793 16.8249V8.86384C10.0793 8.59319 10.1866 8.33363 10.3776 8.14223C10.5686 7.95083 10.8277 7.84328 11.0978 7.84323H12.7972C13.0673 7.84328 13.3264 7.95083 13.5174 8.14223C13.7084 8.33363 13.8157 8.59319 13.8157 8.86384V16.253C13.8157 16.253 14.2408 16.0807 14.6547 15.9056C14.8085 15.8404 14.9397 15.7313 15.032 15.5919C15.1243 15.4525 15.1736 15.289 15.1737 15.1217V6.3127C15.1737 6.0421 15.281 5.78258 15.472 5.59122C15.663 5.39986 15.922 5.29233 16.1921 5.29228H17.8896C18.1596 5.29254 18.4184 5.40017 18.6092 5.59151C18.8 5.78284 18.9072 6.04224 18.9072 6.3127V13.5666C20.3789 12.498 21.8704 11.2127 23.054 9.66734C23.2258 9.44302 23.3394 9.1796 23.3848 8.90058C23.4302 8.62157 23.406 8.33562 23.3143 8.06827C22.7664 6.48903 21.8954 5.04178 20.7572 3.81911C19.6189 2.59644 18.2385 1.6253 16.7041 0.96781C15.1698 0.310323 13.5153 -0.0190231 11.8466 0.000848561C10.1779 0.0207202 8.53169 0.389371 7.01335 1.08321C5.49502 1.77705 4.13798 2.7808 3.02908 4.03023C1.92017 5.27965 1.08382 6.74724 0.573533 8.33908C0.0632501 9.93092 -0.109723 11.612 0.0656806 13.2746C0.241085 14.9373 0.761004 16.5449 1.59217 17.9947C1.73697 18.2448 1.95002 18.4483 2.20627 18.5813C2.46253 18.7143 2.75134 18.7713 3.03879 18.7455C3.35991 18.7172 3.75973 18.6772 4.23508 18.6213C4.44197 18.5977 4.63297 18.4987 4.77171 18.3432C4.91045 18.1877 4.98725 17.9864 4.98746 17.7778V11.4073" fill="#110C22"/>
<path d="M4.95044 21.7008C6.73978 23.0049 8.85434 23.7877 11.0602 23.9626C13.266 24.1374 15.4772 23.6975 17.4489 22.6915C19.4207 21.6855 21.0763 20.1527 22.2325 18.2625C23.3886 16.3724 24.0004 14.1986 24 11.9818C24 11.7044 23.9871 11.4314 23.9687 11.1592C19.5863 17.7075 11.4947 20.7687 4.95044 21.7008Z" fill="#110C22"/>
</g>
<defs>
<clipPath id="clip0_927_34485">
<rect width="24" height="24" fill="white"/>
</clipPath>
</defs>
</svg>
