<svg width="19" height="18" viewBox="0 0 19 18" fill="none" xmlns="http://www.w3.org/2000/svg">
<path fill-rule="evenodd" clip-rule="evenodd" d="M0.300049 3.32399C0.300049 1.71117 4.58995 0.300049 9.30005 0.300049C14.0102 0.300049 18.2993 1.71041 18.3 3.25981V3.32322C18.3 3.39168 18.295 3.46222 18.2852 3.53471C18.3132 3.6106 18.3024 3.69406 18.2462 3.76831C18.2427 3.77291 18.2391 3.77748 18.2355 3.78205C17.8794 5.14495 16.1068 7.08771 14.386 8.97305C13.2255 10.2444 12.1284 11.4469 11.7097 12.2193V15.7146C11.7097 16.6704 10.5003 17.0983 9.30158 17.0983C8.10132 17.0983 6.89114 16.6704 6.89114 15.7146V12.2193C6.47246 11.4477 5.37458 10.2444 4.21482 8.97382C2.49279 7.08779 0.719421 5.1443 0.36416 3.78133C0.360766 3.777 0.35742 3.77266 0.354123 3.76831C0.297823 3.69404 0.286901 3.61054 0.314782 3.53464C0.305046 3.46244 0.300049 3.39218 0.300049 3.32399ZM1.50797 4.46162C2.20338 5.6363 3.59255 7.15887 4.77565 8.45558L4.77866 8.45888C6.01482 9.8127 7.18222 11.0924 7.61389 11.955C7.64063 12.0085 7.65438 12.0665 7.65438 12.1261V15.7146C7.65438 16.0508 8.40845 16.3343 9.30081 16.3343C10.1924 16.3343 10.945 16.05 10.945 15.7146V12.1261C10.945 12.0665 10.9595 12.0077 10.9854 11.955C11.4179 11.0924 12.5853 9.8127 13.8214 8.45811C15.0153 7.15013 16.4196 5.6111 17.1092 4.45556C14.8565 5.25136 10.3559 5.30005 9.29927 5.30005H9.29839C8.24719 5.30005 3.76648 5.25202 1.50797 4.46162ZM17.5309 3.41153C17.5122 3.42744 17.4953 3.44495 17.4808 3.46399C16.9607 4.15045 13.4437 4.66799 9.29927 4.66799H9.29839C5.15483 4.66799 1.63873 4.15045 1.11948 3.46399C1.10672 3.44723 1.09218 3.43164 1.07611 3.41727C1.06815 3.36263 1.06406 3.3101 1.06406 3.25981C1.06406 2.60811 4.26066 1.06329 9.30005 1.06329C14.3394 1.06329 17.5353 2.60735 17.5353 3.25981V3.32399C17.5353 3.35233 17.5338 3.38152 17.5309 3.41153Z" fill="#52555D"/>
<path fill-rule="evenodd" clip-rule="evenodd" d="M18.6 3.25976V3.32317C18.6 3.38605 18.5965 3.44942 18.5899 3.51315C18.6171 3.65027 18.5894 3.79153 18.5107 3.9131C18.3025 4.64777 17.7447 5.49607 17.0581 6.36728C16.3479 7.26849 15.4674 8.23314 14.6096 9.17305L14.6076 9.17524C14.0264 9.81197 13.4659 10.4262 12.9985 10.9773C12.5556 11.4995 12.21 11.9492 12.0097 12.2974V15.7146C12.0097 16.3471 11.6004 16.7772 11.0895 17.0331C10.5823 17.287 9.93006 17.3982 9.30156 17.3982C8.67235 17.3982 8.01952 17.287 7.51201 17.0331C7.00074 16.7773 6.59112 16.3472 6.59112 15.7146V12.2974C6.39079 11.9495 6.04508 11.4998 5.6021 10.9777C5.13456 10.4266 4.57412 9.81239 3.99326 9.17605C3.13413 8.23509 2.25237 7.26928 1.54132 6.36707C0.854427 5.49552 0.29655 4.64689 0.0888075 3.91201C0.0108108 3.79089 -0.0169961 3.65009 0.0101034 3.51315C0.00350263 3.44968 3.47127e-05 3.38656 3.47127e-05 3.32394C3.47127e-05 2.78018 0.359377 2.31185 0.863198 1.93159C1.37485 1.54541 2.09187 1.20522 2.93878 0.92259C4.63585 0.356251 6.9187 0 9.30003 0C11.6815 0 13.9636 0.356085 15.6598 0.913868C16.5062 1.19221 17.2224 1.52587 17.7336 1.90201C18.2348 2.27079 18.5998 2.72749 18.6 3.25976ZM0.314768 3.53459C0.286887 3.6105 0.297809 3.69399 0.354109 3.76826L0.364146 3.78128C0.719407 5.14425 2.49278 7.08774 4.21481 8.97377C5.37457 10.2443 6.47245 11.4476 6.89112 12.2193V15.7146C6.89112 16.6704 8.10131 17.0982 9.30156 17.0982C10.5003 17.0982 11.7097 16.6704 11.7097 15.7146V12.2193C12.1284 11.4469 13.2255 10.2443 14.386 8.973C16.1067 7.08766 17.8794 5.1449 18.2355 3.782L18.2461 3.76826C18.3024 3.69401 18.3132 3.61055 18.2852 3.53466C18.295 3.46217 18.3 3.39163 18.3 3.32317V3.25976C18.2993 1.71036 14.0101 0.3 9.30003 0.3C4.58993 0.3 0.300035 1.71112 0.300035 3.32394C0.300035 3.39214 0.305032 3.46239 0.314768 3.53459ZM13.8214 8.45806C14.8831 7.29491 16.1112 5.94906 16.8551 4.85265C16.9477 4.71612 17.0329 4.58347 17.1092 4.45551C16.9699 4.50472 16.822 4.55107 16.6669 4.59473C14.3131 5.25715 10.2905 5.3 9.29925 5.3C8.31252 5.3 4.3032 5.25768 1.94729 4.59879C1.79336 4.55573 1.64647 4.51005 1.50795 4.46157C1.58363 4.58941 1.66753 4.72137 1.75849 4.85671C2.50329 5.96497 3.72128 7.29993 4.77562 8.45551L4.77864 8.45883C6.01481 9.81265 7.18221 11.0924 7.61387 11.9549C7.64061 12.0084 7.65436 12.0665 7.65436 12.1261V15.7146C7.65436 16.0508 8.40844 16.3342 9.3008 16.3342C10.1924 16.3342 10.9449 16.05 10.9449 15.7146V12.1261C10.9449 12.0665 10.9595 12.0076 10.9854 11.9549C11.4179 11.0924 12.5853 9.81265 13.8214 8.45806ZM5.00024 8.25661C5.00026 8.25663 5.00022 8.25659 5.00024 8.25661C5.61718 8.93226 6.22266 9.5956 6.72787 10.1984C7.22951 10.7969 7.64935 11.3555 7.88215 11.8207C7.92961 11.9156 7.95436 12.0197 7.95436 12.1261V15.6974C7.95885 15.7034 7.96753 15.7134 7.98336 15.7272C8.03141 15.7691 8.1177 15.8204 8.24858 15.8697C8.50799 15.9673 8.88253 16.0342 9.3008 16.0342C9.71856 16.0342 10.0925 15.9671 10.3514 15.8695C10.482 15.8202 10.5681 15.7689 10.616 15.727C10.6318 15.7132 10.6405 15.7033 10.6449 15.6973V12.1261C10.6449 12.0181 10.6711 11.9141 10.7163 11.8223L10.7172 11.8205C10.9504 11.3554 11.3704 10.7969 11.8721 10.1983C12.3774 9.59542 12.9829 8.93188 13.5998 8.25584C14.5763 7.186 15.6686 5.98755 16.4038 4.97348C15.323 5.23609 13.9929 5.38721 12.7774 5.4754C11.2285 5.58778 9.83117 5.6 9.29925 5.6C8.77006 5.6 7.37825 5.58794 5.83429 5.47641C4.61959 5.38866 3.28918 5.23809 2.20696 4.97619C2.94113 5.99828 4.02602 7.18883 4.99723 8.25331M4.99723 8.25331L5.00024 8.25661L4.99723 8.25331ZM10.6492 15.6906C10.6493 15.6906 10.6491 15.6911 10.6484 15.6922L10.6492 15.6906ZM7.95011 15.6908C7.95016 15.6908 7.95046 15.6913 7.95089 15.6923L7.95011 15.6908ZM17.2353 3.29071C17.2057 3.32547 17.1394 3.3803 17.0118 3.44642C16.8789 3.51534 16.7007 3.58573 16.4769 3.65514C16.0298 3.79384 15.4286 3.92014 14.7055 4.02656C13.2609 4.23914 11.3606 4.36794 9.29925 4.36794C7.23835 4.36794 5.33762 4.23915 3.8935 4.02656C3.17055 3.92014 2.56962 3.79384 2.12271 3.65515C1.8991 3.58575 1.72101 3.51536 1.58817 3.44646C1.46023 3.38009 1.39406 3.32514 1.36476 3.29048C1.36448 3.28438 1.36428 3.2784 1.36417 3.27252C1.36782 3.26464 1.38214 3.23505 1.43096 3.18253C1.50379 3.10419 1.62456 3.00643 1.80123 2.89603C2.15281 2.67634 2.6858 2.43124 3.38557 2.20224C4.78241 1.74512 6.80972 1.36324 9.30003 1.36324C11.7904 1.36324 13.8175 1.74493 15.2141 2.20195C15.9138 2.43091 16.4467 2.67597 16.7982 2.89569C16.9748 3.00609 17.0955 3.10387 17.1683 3.18224C17.2178 3.23556 17.2319 3.26528 17.2353 3.27267V3.29071ZM1.0761 3.41722C1.09217 3.43159 1.10671 3.44718 1.11946 3.46394C1.63872 4.1504 5.15481 4.66794 9.29838 4.66794C13.4428 4.66794 16.9607 4.1504 17.4808 3.46394C17.4953 3.4449 17.5122 3.42739 17.5309 3.41148C17.5338 3.38147 17.5353 3.35228 17.5353 3.32394V3.25976C17.5353 2.6073 14.3394 1.06324 9.30003 1.06324C4.26065 1.06324 1.06404 2.60806 1.06404 3.25976C1.06404 3.31005 1.06813 3.36258 1.0761 3.41722Z" fill="#52555D"/>
</svg>
