<svg width="80" height="80" viewBox="0 0 80 80" fill="none" xmlns="http://www.w3.org/2000/svg">
<g clip-path="url(#clip0_1334_30836)">
<path d="M75 45.291V63.5569C75 64.2949 74.5898 64.9513 73.9746 65.3203L57.3905 74.7539C57.1037 74.9179 56.7347 75.0001 56.4062 75.0001L52.3047 64.0412L56.4062 54.3556L65.6348 45.1292L74.7127 44.2656C74.9178 44.5941 75 44.922 75 45.291Z" fill="#7B3FE4"/>
<path d="M56.4062 54.3556V75.0001C56.0778 75.0001 55.7093 74.9179 55.422 74.7539L38.9746 65.3203C38.3594 64.9513 37.9492 64.2949 37.9492 63.5569V45.291C37.9492 44.922 38.0315 44.5941 38.2365 44.2656L47.5361 45.3284L56.4062 54.3556Z" fill="#D0BAF5"/>
<path d="M74.7125 44.2655L56.406 54.3555L38.2363 44.2655C38.4414 43.9782 38.6871 43.6914 39.0155 43.5275C39.0155 43.5275 55.504 34.0527 55.5446 34.0527C55.8319 33.9299 56.1187 33.8477 56.406 33.8477C56.6934 33.8477 56.9801 33.9299 57.2675 34.0527C57.3081 34.0527 73.9333 43.5275 73.9333 43.5275C74.2617 43.6914 74.5074 43.9782 74.7125 44.2655Z" fill="#FAF7FE"/>
<path d="M74.7127 44.2655L56.4062 54.3555V33.8477C56.6936 33.8477 56.9804 33.9299 57.2677 34.0527C57.3083 34.0527 73.9335 43.5275 73.9335 43.5275C74.2619 43.6914 74.5076 43.9782 74.7127 44.2655Z" fill="#EAE0FB"/>
<path d="M41.9141 16.5801V34.7092C41.9141 35.4473 41.5039 36.1036 40.8887 36.4727L24.4413 45.9063C24.1545 46.0702 23.7855 46.1525 23.457 46.1525L19.3555 35.1936L23.457 25.6446L32.6855 16.4183L41.6267 15.5547C41.8318 15.8831 41.9141 16.211 41.9141 16.5801Z" fill="#7B3FE4"/>
<path d="M23.457 25.6446V46.1525C23.1286 46.1525 22.7601 46.0702 22.4728 45.9063L6.02539 36.4727C5.41016 36.1036 5 35.4473 5 34.7092V16.5801C5 16.211 5.08224 15.8831 5.28732 15.5547L14.5869 16.6175L23.457 25.6446Z" fill="#D0BAF5"/>
<path d="M41.6265 15.5546L23.4568 25.6445L5.28711 15.5546C5.49219 15.2673 5.73785 14.9805 6.0663 14.8165C6.0663 14.8165 22.5548 5.20508 22.5954 5.20508C22.8827 5.08224 23.1695 5 23.4568 5C23.7441 5 24.0309 5.08224 24.3183 5.20508C24.3588 5.20508 40.8473 14.8165 40.8473 14.8165C41.1758 14.9805 41.4214 15.2673 41.6265 15.5546Z" fill="#FAF7FE"/>
<path d="M41.6267 15.5546L23.457 25.6445V5C23.7444 5 24.0311 5.08224 24.3185 5.20508C24.3591 5.20508 40.8475 14.8165 40.8475 14.8165C41.176 14.9805 41.4217 15.2673 41.6267 15.5546Z" fill="#EAE0FB"/>
<path d="M58.457 27.6953V44.1016C58.457 45.2498 57.555 46.1523 56.4062 46.1523C55.2575 46.1523 54.3555 45.2498 54.3555 44.1016V29.7461H35.7617C34.613 29.7461 33.7109 28.8435 33.7109 27.6953C33.7109 26.5466 34.613 25.6445 35.7617 25.6445H56.4062C57.555 25.6445 58.457 26.5466 58.457 27.6953Z" fill="#E1F1F5"/>
<path d="M58.457 27.6953V44.1016C58.457 45.2498 57.555 46.1523 56.4062 46.1523V25.6445C57.555 25.6445 58.457 26.5466 58.457 27.6953Z" fill="#BCE0E8"/>
</g>
<defs>
<clipPath id="clip0_1334_30836">
<rect width="70" height="70" fill="white" transform="translate(5 5)"/>
</clipPath>
</defs>
</svg>
