<svg width="24" height="28" viewBox="0 0 24 28" fill="none" xmlns="http://www.w3.org/2000/svg">
<path d="M22.0793 5.96351L13.9207 1.25117C13.3363 0.915519 12.674 0.738892 12.0001 0.738892C11.3261 0.738892 10.6639 0.915519 10.0794 1.25117L7.20928 2.90942C7.92356 3.14317 8.5852 3.51444 9.1569 4.00229L11.0398 2.91484C11.3318 2.74648 11.663 2.65786 12.0001 2.65786C12.3371 2.65786 12.6683 2.74648 12.9603 2.91484L15.771 4.53792L11.8783 8.06271L12.863 9.76425L17.5185 5.54694L21.119 7.62718C21.4107 7.79551 21.653 8.03759 21.8215 8.32912C21.9901 8.62065 22.079 8.95139 22.0793 9.28814V12.9184L15.9388 15.0961L16.9153 16.7868L22.0793 14.9554V18.7128C22.0788 19.0485 21.9904 19.3782 21.8228 19.6691C21.6553 19.9601 21.4145 20.2021 21.1245 20.3711C21.1217 20.3711 21.1217 20.3738 21.1191 20.3738C21.1191 20.3738 19.4717 21.326 19.4554 21.3341C19.0174 21.5688 18.5054 21.6241 18.0274 21.4883C17.5494 21.3525 17.1428 21.0363 16.8936 20.6064L8.72683 6.45856C8.21619 5.58041 7.37891 4.93991 6.39773 4.67688C5.41655 4.41384 4.37115 4.54963 3.48973 5.0546L1.92609 5.95812L1.91803 5.96352C1.33575 6.30183 0.852279 6.78679 0.515757 7.3701C0.179235 7.95341 0.00140952 8.61471 0 9.28814V18.7128C0.00140712 19.3862 0.179227 20.0475 0.51575 20.6309C0.852272 21.2142 1.33575 21.6991 1.91803 22.0374L10.0794 26.7498C10.6641 27.0848 11.3262 27.261 12.0001 27.261C12.6739 27.261 13.3361 27.0848 13.9207 26.7498L16.7611 25.1078C16.0463 24.8752 15.3844 24.5038 14.8134 24.0149L12.9604 25.0861C12.668 25.2536 12.337 25.3417 12.0001 25.3417C11.6632 25.3417 11.3321 25.2536 11.0398 25.0861L4.37432 21.2367L11.3968 18.7453L10.4203 17.0546L3.22729 19.6082C3.1336 19.6408 3.0315 19.6401 2.93831 19.6061C2.84511 19.572 2.76655 19.5068 2.71593 19.4215C2.66531 19.3362 2.64576 19.236 2.66057 19.1379C2.67538 19.0398 2.72365 18.9498 2.79721 18.8832L8.49423 13.7218L7.5123 12.0203L1.91804 17.087V9.28814C1.91839 8.95139 2.0073 8.62065 2.17584 8.32912C2.34439 8.03759 2.58664 7.79551 2.8783 7.62718L2.8865 7.62176C2.8865 7.62176 4.47431 6.70474 4.48513 6.69932C4.9237 6.45877 5.43898 6.39937 5.92077 6.53384C6.40256 6.66832 6.8126 6.98598 7.0632 7.41888L15.2328 21.5667C15.7436 22.4439 16.5806 23.0835 17.5612 23.346C18.5417 23.6085 19.5863 23.4726 20.4671 22.968L22.0793 22.0374C22.0821 22.0374 22.0821 22.0347 22.0847 22.0347C22.6664 21.6966 23.1492 21.212 23.4853 20.6291C23.8213 20.0463 23.9988 19.3856 24 18.7128V9.28814C23.9986 8.61439 23.8205 7.95279 23.4835 7.36941C23.1465 6.78602 22.6623 6.30125 22.0793 5.96351Z" fill="#7B3FE4"/>
</svg>
