<svg width="24" height="25" viewBox="0 0 24 25" fill="none" xmlns="http://www.w3.org/2000/svg">
<circle cx="12" cy="12.7389" r="9" fill="#834AFC"/>
<path d="M16.4022 9.37117L12.837 7.33568C12.5797 7.19259 12.2935 7.11389 11.9964 7.11389C11.7029 7.11389 11.413 7.18901 11.1558 7.33568L9.90217 8.05115C10.2138 8.15131 10.5036 8.31229 10.7536 8.52335L11.5761 8.05472C11.7029 7.98318 11.8478 7.94383 11.9964 7.94383C12.1449 7.94383 12.2899 7.98318 12.4167 8.05472L13.6449 8.75588L11.942 10.2762L12.3732 11.0096L14.4094 9.18873L15.9819 10.0866C16.1087 10.1582 16.2138 10.2655 16.2899 10.3907C16.3623 10.5159 16.4022 10.659 16.4022 10.8057V12.3725L13.7174 13.3134L14.1449 14.0431L16.4022 13.2526V14.8731C16.4022 15.0197 16.3623 15.1593 16.2899 15.2845C16.2174 15.4097 16.1123 15.5134 15.9855 15.5885C15.9855 15.5885 15.9855 15.5885 15.9819 15.5885C15.9819 15.5885 15.2609 15.9999 15.2536 16.0035C15.0616 16.1037 14.837 16.1287 14.6304 16.0715C14.4203 16.0142 14.2428 15.8747 14.1341 15.6923L10.5652 9.58581C10.3406 9.20662 9.97464 8.93116 9.5471 8.81669C9.11957 8.70222 8.65942 8.76303 8.27536 8.98125L7.59058 9.37117L7.58696 9.37475C7.33333 9.52142 7.11957 9.7289 6.97464 9.98289C6.82609 10.2333 6.75 10.5195 6.75 10.8093V14.8767C6.75 15.1664 6.82971 15.4526 6.97464 15.703C7.12319 15.9534 7.33333 16.1645 7.58696 16.3112L11.1558 18.3466C11.413 18.4897 11.6993 18.5684 11.9964 18.5684C12.2899 18.5684 12.5797 18.4933 12.837 18.3466L14.0797 17.6383C13.7681 17.5382 13.4783 17.3772 13.2283 17.1661L12.4167 17.6276C12.2899 17.6992 12.1449 17.7385 11.9964 17.7385C11.8478 17.7385 11.7029 17.6992 11.5761 17.6276L8.66304 15.9677L11.7319 14.891L11.3043 14.1612L8.16304 15.2594C8.12319 15.2737 8.07609 15.2737 8.03623 15.2594C7.99638 15.2451 7.96015 15.2165 7.93841 15.1807C7.91667 15.1449 7.90942 15.102 7.91304 15.0591C7.92029 15.0162 7.94203 14.9768 7.97101 14.9482L10.4601 12.7195L10.0362 11.9862L7.59058 14.1719V10.8057C7.59058 10.659 7.63043 10.5159 7.7029 10.3907C7.77536 10.2655 7.88406 10.1618 8.01087 10.0866L8.01449 10.0831C8.01449 10.0831 8.71014 9.68598 8.71377 9.68598C8.9058 9.58223 9.13043 9.55719 9.34058 9.61443C9.55072 9.67167 9.73188 9.81118 9.84058 9.9972L13.413 16.1037C13.6377 16.4829 14.0036 16.7583 14.4312 16.8728C14.8587 16.9873 15.3152 16.9265 15.7029 16.7082L16.4094 16.3076C16.4094 16.3076 16.4094 16.3076 16.413 16.3076C16.6667 16.1609 16.8768 15.9534 17.0254 15.6994C17.1739 15.449 17.25 15.1628 17.25 14.8731V10.8057C17.25 10.5159 17.1703 10.2297 17.0254 9.97932C16.8696 9.72533 16.6594 9.51784 16.4022 9.37117Z" fill="#FAF8FF"/>
</svg>
