<svg width="81" height="80" viewBox="0 0 81 80" fill="none" xmlns="http://www.w3.org/2000/svg">
<path d="M18.0454 39.5652C18.0454 51.9484 28.2305 62.0228 40.7498 62.0228L49.3327 42.4064L40.7498 17.1077C28.2305 17.1077 18.0454 27.1821 18.0454 39.5652Z" fill="#E1F1F5"/>
<path d="M40.75 17.1077V39.3993L52.3075 32.5093L56.7119 23.6109C52.6076 19.5929 46.967 17.1077 40.75 17.1077Z" fill="#7B3FE4"/>
<path d="M56.7121 23.611L40.75 39.3995V62.023C53.2692 62.023 63.4543 51.9486 63.4543 39.5655C63.4543 33.3316 60.8726 27.6839 56.7121 23.611Z" fill="#E1F1F5"/>
<path d="M40.6201 54.6327H37.7478V59.314C28.9709 58.0141 22.0243 51.1057 20.766 42.4064H25.623V36.7241H20.766C22.1646 27.0537 30.5928 19.5954 40.75 19.5954L43.2641 17.1077L40.75 13.9131C26.4499 13.9131 14.8159 25.4206 14.8159 39.5653C14.8159 53.7099 26.4499 65.2174 40.75 65.2174L43.6224 62.3763L40.6201 54.6327Z" fill="#D0BAF5"/>
<path d="M40.75 13.9131V19.5954C50.9074 19.5954 59.3353 27.0537 60.734 36.7241H55.7471V42.4064H60.734C59.4696 51.1485 52.4604 58.0814 43.6224 59.332V54.6327H40.75V65.2174C55.0501 65.2174 66.6841 53.7099 66.6841 39.5653C66.6841 25.4206 55.0501 13.9131 40.75 13.9131V13.9131Z" fill="#7B3FE4"/>
</svg>
