<svg width="16" height="16" viewBox="0 0 16 16" fill="none" xmlns="http://www.w3.org/2000/svg">
<path d="M9.05184 14.7305C9.50016 14.6711 9.85438 15.1093 9.70244 15.5354C9.62303 15.7514 9.43857 15.9031 9.20972 15.9334C8.68306 16.0011 8.15103 16.0173 7.62123 15.9815C5.66664 15.8499 3.90808 15.0031 2.60533 13.7004C1.18472 12.2799 0.305908 10.3174 0.305908 8.15004C0.305908 5.98241 1.18472 4.02016 2.60533 2.59967C4.02594 1.17917 5.98834 0.300429 8.15615 0.300429C8.90772 0.300429 9.64022 0.408592 10.3383 0.610224C10.9111 0.775467 11.4629 1.00591 11.9831 1.29703L11.8283 0.891885C11.6992 0.552392 11.8696 0.172572 12.2088 0.0431515C12.5483 -0.0859561 12.9282 0.0844159 13.0576 0.423909L13.7117 2.13513C13.7363 2.20024 13.7507 2.2688 13.7542 2.33833C13.8054 2.65719 13.6144 2.97324 13.2968 3.06952L11.5451 3.60533C11.1984 3.71037 10.8323 3.51468 10.7273 3.1683C10.6222 2.82193 10.8179 2.45556 11.1643 2.35052L11.3084 2.30644C10.8933 2.08174 10.4551 1.90231 10.0016 1.77125C9.42107 1.6037 8.80205 1.51366 8.15615 1.51366C6.32349 1.51366 4.66403 2.25642 3.4632 3.45747C2.26206 4.6582 1.51924 6.31722 1.51924 8.15004C1.51924 9.98256 2.26206 11.6416 3.4632 12.8426C4.55148 13.9308 6.01617 14.6429 7.6453 14.7667C8.11113 14.8021 8.5904 14.7905 9.05184 14.7305ZM6.95438 4.95737C6.95438 4.62256 7.22606 4.3509 7.56121 4.3509C7.89604 4.3509 8.16772 4.62256 8.16772 4.95737V8.64991L10.6954 9.76092C11.0017 9.89565 11.1406 10.2533 11.0058 10.5596C10.8711 10.8657 10.5134 11.0048 10.207 10.8701L7.34768 9.61337C7.11789 9.52677 6.95438 9.30513 6.95438 9.04536V4.95737ZM11.1656 14.0821C10.6772 14.3319 10.7423 15.0481 11.2684 15.2053C11.4207 15.2485 11.5723 15.2353 11.7142 15.1644C12.1057 14.9677 12.4814 14.7361 12.8338 14.476C13.0057 14.3478 13.0951 14.1459 13.0767 13.9324C13.0298 13.4606 12.4927 13.2215 12.111 13.5016C11.8129 13.7217 11.4966 13.9159 11.1656 14.0821ZM13.6404 11.9079C13.364 12.3199 13.6744 12.8739 14.1709 12.852C14.3651 12.8417 14.5389 12.7466 14.6477 12.5841C14.8934 12.2196 15.1057 11.8379 15.2876 11.4378C15.463 11.0426 15.1898 10.6 14.7574 10.5815C14.5095 10.5734 14.285 10.7119 14.1819 10.9379C14.0277 11.2771 13.8486 11.5991 13.6404 11.9079ZM14.7552 8.79683C14.7333 9.03504 14.849 9.25824 15.055 9.37922C15.4415 9.59867 15.9179 9.35296 15.9632 8.91125C16.0048 8.47297 16.0114 8.03907 15.9814 7.59985C15.9664 7.38884 15.8444 7.20284 15.6569 7.10437C15.2361 6.88616 14.7374 7.21253 14.7709 7.68488C14.7965 8.05751 14.7906 8.42483 14.7552 8.79683ZM14.2525 5.53382C14.3885 5.84736 14.7534 5.98835 15.0638 5.84518C15.363 5.70763 15.4971 5.35719 15.3674 5.05459C15.1954 4.65164 14.9885 4.26431 14.7518 3.89543C14.4545 3.4384 13.7548 3.57157 13.6466 4.10644C13.6169 4.26369 13.6451 4.41718 13.7317 4.55254C13.9324 4.86577 14.1068 5.19151 14.2525 5.53382Z" fill="#E76E2B"/>
</svg>
