<svg width="50" height="50" viewBox="0 0 50 50" fill="none" xmlns="http://www.w3.org/2000/svg">
<g clip-path="url(#clip0_685_33597)">
<path d="M43.9453 29.3945V36.7188C43.9453 37.5389 43.301 38.1836 42.4805 38.1836C41.6599 38.1836 41.0156 37.5389 41.0156 36.7188V30.8594H8.78906V36.7188C8.78906 37.5389 8.14476 38.1836 7.32422 38.1836C6.50368 38.1836 5.85938 37.5389 5.85938 36.7188V29.3945C5.85938 28.574 6.50368 27.9297 7.32422 27.9297H42.4805C43.301 27.9297 43.9453 28.574 43.9453 29.3945Z" fill="#E1F1F5"/>
<path d="M26.3672 23.5352V36.7188C26.3672 37.5389 25.7229 38.1836 24.9023 38.1836C24.0818 38.1836 23.4375 37.5389 23.4375 36.7188V23.5352C23.4375 22.7146 24.0818 22.0703 24.9023 22.0703C25.7229 22.0703 26.3672 22.7146 26.3672 23.5352Z" fill="#E1F1F5"/>
<path d="M43.9453 29.3945V36.7188C43.9453 37.5389 43.301 38.1836 42.4805 38.1836C41.6599 38.1836 41.0156 37.5389 41.0156 36.7188V30.8594H24.9023V27.9297H42.4805C43.301 27.9297 43.9453 28.574 43.9453 29.3945Z" fill="#BCE0E8"/>
<path d="M26.3672 23.5352V36.7188C26.3672 37.5389 25.7229 38.1836 24.9023 38.1836V22.0703C25.7229 22.0703 26.3672 22.7146 26.3672 23.5352Z" fill="#BCE0E8"/>
<path d="M13.1836 50H1.46484C0.655365 50 0 49.3446 0 48.5352V36.7188C0 35.9093 0.655365 35.2539 1.46484 35.2539H13.1836C13.9931 35.2539 14.6484 35.9093 14.6484 36.7188V48.5352C14.6484 49.3446 13.9931 50 13.1836 50Z" fill="#FAF7FE"/>
<path d="M30.7617 35.2539H19.043C18.2224 35.2539 17.5781 35.8982 17.5781 36.7188V48.5352C17.5781 49.3553 18.2224 50 19.043 50H30.7617C31.5823 50 32.2266 49.3553 32.2266 48.5352V36.7188C32.2266 35.8982 31.5823 35.2539 30.7617 35.2539Z" fill="#EAE0FB"/>
<path d="M48.4375 50H36.6211C35.8116 50 35.1562 49.3446 35.1562 48.5352V36.7188C35.1562 35.9093 35.8116 35.2539 36.6211 35.2539H48.4375C49.247 35.2539 49.9023 35.9093 49.9023 36.7188V48.5352C49.9023 49.3446 49.247 50 48.4375 50Z" fill="#AA84ED"/>
<path d="M32.2266 36.7188V48.5352C32.2266 49.3553 31.5823 50 30.7617 50H24.9023V35.2539H30.7617C31.5823 35.2539 32.2266 35.8982 32.2266 36.7188Z" fill="#D0BAF5"/>
<path d="M24.9023 0C21.6797 0 19.043 2.63672 19.043 5.85938C19.043 9.08203 21.6797 11.7188 24.9023 11.7188C28.125 11.7188 30.7617 9.08203 30.7617 5.85938C30.7617 2.63672 28.125 0 24.9023 0Z" fill="#EAE0FB"/>
<path d="M24.9023 11.7188C20.8595 11.7188 17.5781 15.0978 17.5781 19.1406V22.0703C17.5781 22.8905 18.2224 23.5352 19.043 23.5352H30.7617C31.5823 23.5352 32.2266 22.8905 32.2266 22.0703V19.1406C32.2266 15.0978 28.9452 11.7188 24.9023 11.7188Z" fill="#EAE0FB"/>
<path d="M24.9023 11.7188V0C28.125 0 30.7617 2.63672 30.7617 5.85938C30.7617 9.08203 28.125 11.7188 24.9023 11.7188Z" fill="#D0BAF5"/>
<path d="M32.2266 19.1406V22.0703C32.2266 22.8905 31.5823 23.5352 30.7617 23.5352H24.9023V11.7188C28.9452 11.7188 32.2266 15.0978 32.2266 19.1406Z" fill="#D0BAF5"/>
</g>
<defs>
<clipPath id="clip0_685_33597">
<rect width="50" height="50" fill="white"/>
</clipPath>
</defs>
</svg>
