<svg width="80" height="80" viewBox="0 0 80 80" fill="none" xmlns="http://www.w3.org/2000/svg">
<g clip-path="url(#clip0_1334_30817)">
<path d="M61.2109 59.3359H50.6641C49.6922 59.3359 48.9062 58.5495 48.9062 57.5781C48.9062 56.6068 49.6922 55.8203 50.6641 55.8203H59.4531V50.5469C59.4531 49.5755 60.2391 48.7891 61.2109 48.7891C62.1823 48.7891 62.9688 49.5755 62.9688 50.5469V57.5781C62.9688 58.5495 62.1823 59.3359 61.2109 59.3359Z" fill="#BCE0E8"/>
<path d="M19.0234 34.7266C18.0516 34.7266 17.2656 33.9401 17.2656 32.9688V25.8203C17.2656 24.8489 18.0516 24.0625 19.0234 24.0625H29.5703C30.5417 24.0625 31.3281 24.8489 31.3281 25.8203C31.3281 26.7917 30.5417 27.5781 29.5703 27.5781H20.7812V32.9688C20.7812 33.9401 19.9948 34.7266 19.0234 34.7266Z" fill="#E1F1F5"/>
<path d="M29.5703 55.8203H20.7812V44.2435L21.2962 44.7585C21.9829 45.4451 23.0952 45.4451 23.7819 44.7585C24.4685 44.0718 24.4685 42.9594 23.7819 42.2728L20.2663 38.7572C19.5796 38.0705 18.4673 38.0705 17.7806 38.7572L14.265 42.2728C13.5783 42.9594 13.5783 44.0718 14.265 44.7585C14.9516 45.4451 16.064 45.4451 16.7506 44.7585L17.2656 44.2435V57.5781C17.2656 58.5495 18.0516 59.3359 19.0234 59.3359H29.5703C30.5417 59.3359 31.3281 58.5495 31.3281 57.5781C31.3281 56.6068 30.5417 55.8203 29.5703 55.8203Z" fill="#E1F1F5"/>
<path d="M65.9694 38.7572C65.2827 38.0705 64.1704 38.0705 63.4837 38.7572L62.9688 39.2722V25.8203C62.9688 24.8489 62.1823 24.0625 61.2109 24.0625H50.6641C49.6922 24.0625 48.9062 24.8489 48.9062 25.8203C48.9062 26.7917 49.6922 27.5781 50.6641 27.5781H59.4531V39.2722L58.9381 38.7572C58.2515 38.0705 57.1391 38.0705 56.4525 38.7572C55.7658 39.4438 55.7658 40.5562 56.4525 41.2428L59.9681 44.7585C60.3114 45.1018 60.761 45.2734 61.2109 45.2734C61.6605 45.2734 62.1104 45.1018 62.4533 44.7585L65.9689 41.2428C66.656 40.5562 66.656 39.4438 65.9694 38.7572Z" fill="#BCE0E8"/>
<path d="M52.1756 17.1718L46.2695 17.0312L40.1172 24.0625L36.6016 31.0352L40.1172 38.2422C40.4335 38.2422 40.7146 38.1717 40.9961 37.9959L51.5782 31.7383C51.6483 31.703 51.7188 31.633 51.7888 31.5977C52.1756 31.2462 52.4219 30.7188 52.4219 30.2267V18.0507C52.4219 17.7344 52.3514 17.4181 52.1756 17.1718Z" fill="#7B3FE4"/>
<path d="M33.9648 17.0312L28.0583 17.1718C27.8825 17.4533 27.8125 17.7344 27.8125 18.0507V30.2263C27.8125 30.7188 28.0583 31.2462 28.4451 31.5977C28.5156 31.6325 39.2383 37.9959 39.2383 37.9959C39.5193 38.1717 39.8004 38.2422 40.1172 38.2422V24.0625L33.9648 17.0312Z" fill="#D0BAF5"/>
<path d="M52.1759 17.1718L40.1175 24.0625L28.0586 17.1718C28.0938 17.137 28.1291 17.0665 28.1643 17.0312C28.3049 16.8202 28.4807 16.6797 28.6917 16.5392L39.2386 10.2463C39.5196 10.0705 39.8359 10 40.1175 10C40.3985 10 40.7148 10.0705 40.9964 10.2463L51.5432 16.5392C51.7543 16.6797 51.9301 16.8555 52.0706 17.0312C52.1054 17.0665 52.1406 17.137 52.1759 17.1718Z" fill="#FAF7FE"/>
<path d="M52.0584 17.1718L40 24.0625V10C40.2811 10 40.5974 10.0705 40.8789 10.2463L51.4258 16.5392C51.6368 16.6797 51.8126 16.8555 51.9531 17.0312C51.9879 17.0665 52.0232 17.137 52.0584 17.1718Z" fill="#EAE0FB"/>
<path d="M52.1756 48.9296L46.2695 48.7891L40.1172 55.8203L36.6016 62.793L40.1172 70C40.4335 70 40.7146 69.9295 40.9961 69.7537L51.5782 63.4961C51.6483 63.4608 51.7188 63.3908 51.7888 63.3556C52.1756 63.004 52.4219 62.4767 52.4219 61.9846V49.8085C52.4219 49.4922 52.3514 49.1759 52.1756 48.9296Z" fill="#7B3FE4"/>
<path d="M33.9648 48.7891L28.0583 48.9296C27.8825 49.2111 27.8125 49.4922 27.8125 49.8085V61.9841C27.8125 62.4767 28.0583 63.004 28.4451 63.3556C28.5156 63.3904 39.2383 69.7537 39.2383 69.7537C39.5193 69.9295 39.8004 70 40.1172 70V55.8203L33.9648 48.7891Z" fill="#D0BAF5"/>
<path d="M52.1759 48.9296L40.1175 55.8203L28.0586 48.9296C28.0938 48.8948 28.1291 48.8243 28.1643 48.7891C28.3049 48.578 28.4807 48.4375 28.6917 48.297L39.2386 42.0041C39.5196 41.8283 39.8359 41.7578 40.1175 41.7578C40.3985 41.7578 40.7148 41.8283 40.9964 42.0041L51.5432 48.297C51.7543 48.4375 51.9301 48.6133 52.0706 48.7891C52.1054 48.8243 52.1406 48.8948 52.1759 48.9296Z" fill="#FAF7FE"/>
<path d="M52.1756 48.9296L40.1172 55.8203V41.7578C40.3983 41.7578 40.7146 41.8283 40.9961 42.0041L51.543 48.297C51.754 48.4375 51.9298 48.6133 52.0703 48.7891C52.1051 48.8243 52.1404 48.8948 52.1756 48.9296Z" fill="#EAE0FB"/>
</g>
<defs>
<clipPath id="clip0_1334_30817">
<rect width="60" height="60" fill="white" transform="translate(10 10)"/>
</clipPath>
</defs>
</svg>
