<svg width="27" height="26" viewBox="0 0 27 26" fill="none" xmlns="http://www.w3.org/2000/svg">
<path fill-rule="evenodd" clip-rule="evenodd" d="M2.5 11.8007C2.5 6.47502 6.81731 2.15771 12.143 2.15771C17.4686 2.15771 21.786 6.47502 21.786 11.8007C21.786 17.1264 17.4686 21.4437 12.143 21.4437C6.81731 21.4437 2.5 17.1264 2.5 11.8007ZM12.143 0.657715C5.98888 0.657715 1 5.6466 1 11.8007C1 17.9548 5.98888 22.9437 12.143 22.9437C14.9586 22.9437 17.5303 21.8994 19.4919 20.177C19.5233 20.23 19.5618 20.28 19.6075 20.3256L24.4041 25.1225C24.697 25.4154 25.1719 25.4154 25.4648 25.1225C25.7577 24.8296 25.7577 24.3547 25.4648 24.0618L20.6681 19.265C20.6225 19.2194 20.5725 19.1809 20.5194 19.1495C22.2417 17.1879 23.286 14.6162 23.286 11.8007C23.286 5.6466 18.2971 0.657715 12.143 0.657715Z" fill="#7B3FE4"/>
<path d="M19.4919 20.177L19.9222 19.9223C19.8464 19.7942 19.7175 19.7066 19.5706 19.6832C19.4236 19.6598 19.2739 19.7031 19.162 19.8012L19.4919 20.177ZM19.6075 20.3256L19.2539 20.6792L19.6075 20.3256ZM24.4041 25.1225L24.7577 24.7689L24.4041 25.1225ZM25.4648 25.1225L25.1112 24.7689V24.769L25.4648 25.1225ZM25.4648 24.0618L25.8184 23.7083L25.4648 24.0618ZM20.6681 19.265L20.3146 19.6185L20.6681 19.265ZM20.5194 19.1495L20.1437 18.8196C20.0455 18.9314 20.0022 19.0811 20.0256 19.2281C20.049 19.375 20.1367 19.5039 20.2648 19.5797L20.5194 19.1495ZM12.143 1.65771C6.54117 1.65771 2 6.19888 2 11.8007H3C3 6.75117 7.09345 2.65771 12.143 2.65771V1.65771ZM22.286 11.8007C22.286 6.19888 17.7448 1.65771 12.143 1.65771V2.65771C17.1925 2.65771 21.286 6.75117 21.286 11.8007H22.286ZM12.143 21.9437C17.7448 21.9437 22.286 17.4025 22.286 11.8007H21.286C21.286 16.8502 17.1925 20.9437 12.143 20.9437V21.9437ZM2 11.8007C2 17.4025 6.54117 21.9437 12.143 21.9437V20.9437C7.09345 20.9437 3 16.8502 3 11.8007H2ZM1.5 11.8007C1.5 5.92274 6.26502 1.15771 12.143 1.15771V0.157715C5.71274 0.157715 0.5 5.37045 0.5 11.8007H1.5ZM12.143 22.4437C6.26502 22.4437 1.5 17.6786 1.5 11.8007H0.5C0.5 18.2309 5.71274 23.4437 12.143 23.4437V22.4437ZM19.162 19.8012C17.2882 21.4466 14.8326 22.4437 12.143 22.4437V23.4437C15.0846 23.4437 17.7725 22.3521 19.8219 20.5527L19.162 19.8012ZM19.961 19.9721C19.9453 19.9563 19.9325 19.9396 19.9222 19.9223L19.0617 20.4316C19.1142 20.5204 19.1784 20.6037 19.2539 20.6792L19.961 19.9721ZM24.7577 24.7689L19.961 19.9721L19.2539 20.6792L24.0506 25.476L24.7577 24.7689ZM25.1112 24.769C25.0136 24.8666 24.8553 24.8666 24.7577 24.7689L24.0506 25.476C24.5387 25.9642 25.3302 25.9642 25.8183 25.4761L25.1112 24.769ZM25.1112 24.4154C25.2089 24.513 25.2089 24.6713 25.1112 24.7689L25.8183 25.4761C26.3065 24.9879 26.3065 24.1965 25.8184 23.7083L25.1112 24.4154ZM20.3146 19.6185L25.1112 24.4154L25.8184 23.7083L21.0217 18.9114L20.3146 19.6185ZM20.2648 19.5797C20.2821 19.59 20.2988 19.6028 20.3146 19.6185L21.0217 18.9114C20.9462 18.836 20.8629 18.7717 20.7741 18.7192L20.2648 19.5797ZM22.786 11.8007C22.786 14.4902 21.789 16.9457 20.1437 18.8196L20.8952 19.4794C22.6945 17.43 23.786 14.7422 23.786 11.8007H22.786ZM12.143 1.15771C18.0209 1.15771 22.786 5.92274 22.786 11.8007H23.786C23.786 5.37045 18.5732 0.157715 12.143 0.157715V1.15771Z" fill="#7B3FE4"/>
</svg>
