<svg width="67" height="50" viewBox="0 0 67 50" fill="none" xmlns="http://www.w3.org/2000/svg">
<path d="M0.25 12.4979C0.25 11.4153 0.576262 10.3307 1.23041 9.58135L7.76377 1.24974C9.00551 -0.41658 11.0962 -0.41658 12.3379 1.24974C13.6446 2.83326 13.6446 5.49938 12.3379 7.0829L11.4241 8.33316H29.6542C31.4835 8.33316 32.9217 10.1671 32.9217 12.5C32.9217 14.8328 31.4851 16.6668 29.6542 16.6668H11.4241L12.3379 17.9171C13.6446 19.5006 13.6446 22.1667 12.3379 23.7503C11.0962 25.4166 9.00551 25.4166 7.76377 23.7503L1.23041 15.4145C0.576262 14.6652 0.25 13.5805 0.25 12.4979Z" fill="#EAE0FB"/>
<path d="M0.25 12.4979C0.25 11.4153 0.576262 10.3307 1.23041 9.58135L7.76377 1.24974C9.00551 -0.41658 11.0962 -0.41658 12.3379 1.24974C13.6446 2.83326 13.6446 5.49938 12.3379 7.0829L11.4241 8.33316H29.6542C31.4835 8.33316 32.9217 10.1671 32.9217 12.5H0.25V12.4979Z" fill="#7B3FE4"/>
<path d="M40.7737 12.5C40.7737 11.395 40.4024 10.3352 39.7416 9.55376C39.0807 8.77236 38.1845 8.33337 37.2499 8.33337C36.3153 8.33337 35.419 8.77236 34.7582 9.55376C34.0973 10.3352 33.7261 11.395 33.7261 12.5L37.2499 12.5H40.7737Z" fill="#7B3FE4"/>
<path d="M33.7263 12.5001C33.7263 13.6052 34.0976 14.665 34.7584 15.4464C35.4193 16.2278 36.3155 16.6667 37.2501 16.6667C38.1847 16.6667 39.081 16.2278 39.7418 15.4464C40.4027 14.665 40.7739 13.6052 40.7739 12.5001L37.2501 12.5001L33.7263 12.5001Z" fill="#EAE0FB"/>
<path d="M50.4641 12.5C50.4641 11.395 50.0929 10.3352 49.432 9.55376C48.7712 8.77236 47.8749 8.33337 46.9403 8.33337C46.0057 8.33337 45.1094 8.77236 44.4486 9.55376C43.7878 10.3352 43.4165 11.395 43.4165 12.5L46.9403 12.5H50.4641Z" fill="#7B3FE4"/>
<path d="M43.4167 12.5001C43.4167 13.6052 43.788 14.665 44.4488 15.4464C45.1097 16.2278 46.006 16.6667 46.9405 16.6667C47.8751 16.6667 48.7714 16.2278 49.4323 15.4464C50.0931 14.665 50.4644 13.6052 50.4644 12.5001L46.9405 12.5001L43.4167 12.5001Z" fill="#EAE0FB"/>
<path d="M60.1546 12.5C60.1546 11.395 59.7833 10.3352 59.1225 9.55376C58.4616 8.77236 57.5653 8.33337 56.6307 8.33337C55.6962 8.33337 54.7999 8.77236 54.139 9.55376C53.4782 10.3352 53.1069 11.395 53.1069 12.5L56.6307 12.5H60.1546Z" fill="#7B3FE4"/>
<path d="M53.1072 12.5001C53.1072 13.6052 53.4784 14.665 54.1393 15.4464C54.8001 16.2278 55.6964 16.6667 56.631 16.6667C57.5655 16.6667 58.4618 16.2278 59.1227 15.4464C59.7835 14.665 60.1548 13.6052 60.1548 12.5001L56.631 12.5001L53.1072 12.5001Z" fill="#EAE0FB"/>
<path d="M66.5137 37.4979C66.5137 36.4153 66.1865 35.3307 65.5304 34.5813L58.9781 26.2497C57.7327 24.5834 55.6359 24.5834 54.3906 26.2497C53.0801 27.8333 53.0801 30.4994 54.3906 32.0829L55.3071 33.3332L37.024 33.3332C35.1893 33.3332 33.747 35.1671 33.747 37.5C33.747 39.8328 35.1877 41.6668 37.024 41.6668L55.3071 41.6668L54.3906 42.9171C53.0801 44.5006 53.0801 47.1667 54.3906 48.7503C55.6359 50.4166 57.7327 50.4166 58.9781 48.7503L65.5304 40.4145C66.1865 39.6652 66.5137 38.5805 66.5137 37.4979Z" fill="#EAE0FB"/>
<path d="M66.5137 37.4979C66.5137 36.4153 66.1865 35.3307 65.5304 34.5813L58.9781 26.2497C57.7327 24.5834 55.6359 24.5834 54.3906 26.2497C53.0801 27.8333 53.0801 30.4994 54.3906 32.0829L55.3071 33.3332L37.024 33.3332C35.1893 33.3332 33.747 35.1671 33.747 37.5L66.5137 37.5L66.5137 37.4979Z" fill="#7B3FE4"/>
<path d="M32.9402 37.5C32.9402 36.395 32.5678 35.3352 31.9051 34.5538C31.2423 33.7724 30.3434 33.3334 29.4061 33.3334C28.4688 33.3334 27.5699 33.7724 26.9072 34.5538C26.2444 35.3352 25.8721 36.395 25.8721 37.5L29.4061 37.5L32.9402 37.5Z" fill="#7B3FE4"/>
<path d="M25.8723 37.5001C25.8723 38.6052 26.2447 39.665 26.9074 40.4464C27.5702 41.2278 28.4691 41.6667 29.4064 41.6667C30.3437 41.6667 31.2426 41.2278 31.9053 40.4464C32.5681 39.665 32.9404 38.6052 32.9404 37.5001L29.4064 37.5001L25.8723 37.5001Z" fill="#EAE0FB"/>
<path d="M23.2214 37.5C23.2214 36.395 22.8491 35.3352 22.1863 34.5538C21.5236 33.7724 20.6247 33.3334 19.6874 33.3334C18.7501 33.3334 17.8512 33.7724 17.1884 34.5538C16.5257 35.3352 16.1533 36.395 16.1533 37.5L19.6874 37.5L23.2214 37.5Z" fill="#7B3FE4"/>
<path d="M16.1531 37.5001C16.1531 38.6052 16.5254 39.665 17.1882 40.4464C17.8509 41.2278 18.7498 41.6667 19.6871 41.6667C20.6244 41.6667 21.5233 41.2278 22.1861 40.4464C22.8489 39.665 23.2212 38.6052 23.2212 37.5001L19.6871 37.5001L16.1531 37.5001Z" fill="#EAE0FB"/>
<path d="M6.43482 37.5C6.43482 38.605 6.80716 39.6648 7.46992 40.4462C8.13268 41.2276 9.03158 41.6666 9.96887 41.6666C10.9062 41.6666 11.8051 41.2276 12.4678 40.4462C13.1306 39.6648 13.5029 38.605 13.5029 37.5L9.96887 37.5L6.43482 37.5Z" fill="#EAE0FB"/>
<path d="M13.5032 37.4999C13.5032 36.3949 13.1308 35.335 12.4681 34.5536C11.8053 33.7722 10.9064 33.3333 9.96911 33.3333C9.03182 33.3333 8.13292 33.7722 7.47016 34.5536C6.8074 35.335 6.43506 36.3948 6.43506 37.4999L9.96911 37.4999L13.5032 37.4999Z" fill="#7B3FE4"/>
</svg>
