<svg width="50" height="50" viewBox="0 0 50 50" fill="none" xmlns="http://www.w3.org/2000/svg">
<path d="M4.375 17.1862C4.375 16.5096 4.57891 15.8317 4.98776 15.3633L9.0711 10.1561C9.84719 9.11464 11.1539 9.11464 11.93 10.1561C12.7466 11.1458 12.7466 12.8121 11.93 13.8018L11.3588 14.5832H22.7526C23.8959 14.5832 24.7948 15.7295 24.7948 17.1875C24.7948 18.6455 23.897 19.7918 22.7526 19.7918H11.3588L11.93 20.5732C12.7466 21.5629 12.7466 23.2292 11.93 24.2189C11.1539 25.2604 9.84719 25.2604 9.0711 24.2189L4.98776 19.0091C4.57891 18.5407 4.375 17.8628 4.375 17.1862Z" fill="#EAE0FB"/>
<path d="M4.375 17.1862C4.375 16.5096 4.57891 15.8317 4.98776 15.3633L9.0711 10.1561C9.84719 9.11464 11.1539 9.11464 11.93 10.1561C12.7466 11.1458 12.7466 12.8121 11.93 13.8018L11.3588 14.5832H22.7526C23.8959 14.5832 24.7948 15.7295 24.7948 17.1875H4.375V17.1862Z" fill="#7B3FE4"/>
<path d="M29.7024 17.1875C29.7024 16.4969 29.4703 15.8345 29.0573 15.3461C28.6443 14.8577 28.0841 14.5834 27.5 14.5834C26.9159 14.5834 26.3557 14.8577 25.9427 15.3461C25.5296 15.8345 25.2976 16.4969 25.2976 17.1875L27.5 17.1875H29.7024Z" fill="#7B3FE4"/>
<path d="M25.2976 17.1876C25.2976 17.8782 25.5296 18.5406 25.9427 19.029C26.3557 19.5174 26.9159 19.7917 27.5 19.7917C28.0841 19.7917 28.6443 19.5174 29.0573 19.029C29.4703 18.5406 29.7024 17.8783 29.7024 17.1876L27.5 17.1876L25.2976 17.1876Z" fill="#EAE0FB"/>
<path d="M35.7589 17.1875C35.7589 16.4969 35.5269 15.8345 35.1139 15.3461C34.7008 14.8577 34.1406 14.5834 33.5565 14.5834C32.9724 14.5834 32.4122 14.8577 31.9992 15.3461C31.5862 15.8345 31.3542 16.4969 31.3542 17.1875L33.5565 17.1875H35.7589Z" fill="#7B3FE4"/>
<path d="M31.3542 17.1876C31.3542 17.8782 31.5862 18.5406 31.9992 19.029C32.4122 19.5174 32.9724 19.7917 33.5565 19.7917C34.1406 19.7917 34.7008 19.5174 35.1138 19.029C35.5269 18.5406 35.7589 17.8783 35.7589 17.1876L33.5565 17.1876L31.3542 17.1876Z" fill="#EAE0FB"/>
<path d="M41.8155 17.1875C41.8155 16.4969 41.5834 15.8345 41.1704 15.3461C40.7574 14.8577 40.1972 14.5834 39.6131 14.5834C39.029 14.5834 38.4688 14.8577 38.0558 15.3461C37.6427 15.8345 37.4107 16.4969 37.4107 17.1875L39.6131 17.1875H41.8155Z" fill="#7B3FE4"/>
<path d="M37.4107 17.1876C37.4107 17.8782 37.6427 18.5406 38.0558 19.029C38.4688 19.5174 39.029 19.7917 39.6131 19.7917C40.1972 19.7917 40.7574 19.5174 41.1704 19.029C41.5834 18.5406 41.8155 17.8783 41.8155 17.1876L39.6131 17.1876L37.4107 17.1876Z" fill="#EAE0FB"/>
<path d="M45.7897 32.8112C45.7897 32.1346 45.5852 31.4567 45.1752 30.9883L41.08 25.7811C40.3016 24.7396 38.9912 24.7396 38.2128 25.7811C37.3938 26.7708 37.3938 28.4371 38.2128 29.4268L38.7856 30.2082L27.3587 30.2082C26.212 30.2082 25.3106 31.3545 25.3106 32.8125C25.3106 34.2705 26.211 35.4168 27.3587 35.4168L38.7856 35.4168L38.2128 36.1982C37.3938 37.1879 37.3938 38.8542 38.2128 39.8439C38.9912 40.8854 40.3016 40.8854 41.08 39.8439L45.1752 34.6341C45.5852 34.1657 45.7897 33.4878 45.7897 32.8112Z" fill="#EAE0FB"/>
<path d="M45.7897 32.8112C45.7897 32.1346 45.5852 31.4567 45.1752 30.9883L41.08 25.7811C40.3016 24.7396 38.9912 24.7396 38.2128 25.7811C37.3938 26.7708 37.3938 28.4371 38.2128 29.4268L38.7856 30.2082L27.3587 30.2082C26.212 30.2082 25.3106 31.3545 25.3106 32.8125L45.7897 32.8125L45.7897 32.8112Z" fill="#7B3FE4"/>
<path d="M24.8063 32.8125C24.8063 32.1219 24.5736 31.4595 24.1593 30.9711C23.7451 30.4827 23.1833 30.2084 22.5975 30.2084C22.0117 30.2084 21.4499 30.4827 21.0356 30.9711C20.6214 31.4595 20.3887 32.1219 20.3887 32.8125L22.5975 32.8125L24.8063 32.8125Z" fill="#7B3FE4"/>
<path d="M20.3887 32.8126C20.3887 33.5032 20.6214 34.1656 21.0356 34.654C21.4499 35.1424 22.0117 35.4167 22.5975 35.4167C23.1833 35.4167 23.7451 35.1424 24.1593 34.654C24.5736 34.1656 24.8063 33.5033 24.8063 32.8126L22.5975 32.8126L20.3887 32.8126Z" fill="#EAE0FB"/>
<path d="M18.7321 32.8125C18.7321 32.1219 18.4994 31.4595 18.0852 30.9711C17.6709 30.4827 17.1091 30.2084 16.5233 30.2084C15.9375 30.2084 15.3757 30.4827 14.9615 30.9711C14.5473 31.4595 14.3145 32.1219 14.3145 32.8125L16.5233 32.8125L18.7321 32.8125Z" fill="#7B3FE4"/>
<path d="M14.3145 32.8126C14.3145 33.5032 14.5473 34.1656 14.9615 34.654C15.3757 35.1424 15.9375 35.4167 16.5233 35.4167C17.1091 35.4167 17.671 35.1424 18.0852 34.654C18.4994 34.1656 18.7321 33.5033 18.7321 32.8126L16.5233 32.8126L14.3145 32.8126Z" fill="#EAE0FB"/>
<path d="M8.24039 32.8125C8.24039 33.5031 8.4731 34.1655 8.88733 34.6539C9.30155 35.1423 9.86337 35.4166 10.4492 35.4166C11.035 35.4166 11.5968 35.1423 12.011 34.6539C12.4252 34.1655 12.658 33.5031 12.658 32.8125L10.4492 32.8125L8.24039 32.8125Z" fill="#EAE0FB"/>
<path d="M12.658 32.8124C12.658 32.1218 12.4252 31.4594 12.011 30.971C11.5968 30.4826 11.035 30.2083 10.4492 30.2083C9.86337 30.2083 9.30155 30.4826 8.88733 30.971C8.4731 31.4594 8.24039 32.1217 8.24039 32.8124L10.4492 32.8124L12.658 32.8124Z" fill="#7B3FE4"/>
</svg>
