<svg width="31" height="54" viewBox="0 0 31 54" fill="none" xmlns="http://www.w3.org/2000/svg">
<path d="M7.60156 46.3445C11.7932 50.5361 18.672 50.4769 22.9365 46.2124C27.201 41.948 27.2602 35.0691 23.0685 30.8775C18.8769 26.6858 11.9981 26.7451 7.73361 31.0095C3.46914 35.274 3.40991 42.1528 7.60156 46.3445Z" fill="#D0BAF5"/>
<path d="M7.73361 31.0095C11.9981 26.7451 18.8769 26.6858 23.0685 30.8775L7.60156 46.3445C3.40991 42.1528 3.46914 35.274 7.73361 31.0095Z" fill="#7B3FE4"/>
<path d="M12.0207 41.9253C13.8233 43.728 16.7589 43.7027 18.5928 41.8688C20.4267 40.0348 20.452 37.0993 18.6494 35.2966C16.8468 33.494 13.9112 33.5193 12.0773 35.3532C10.2433 37.1872 10.2181 40.1227 12.0207 41.9253Z" fill="#EAE0FB"/>
<path d="M12.0773 35.3532C13.9113 33.5192 16.8468 33.494 18.6495 35.2966L12.0208 41.9253C10.2181 40.1227 10.2434 37.1871 12.0773 35.3532Z" fill="#D0BAF5"/>
<path d="M15.0892 -3.64265e-07C15.8111 -3.32712e-07 16.5343 0.217546 17.0339 0.65372L22.5893 5.01006C23.7004 5.83803 23.7004 7.23206 22.5893 8.06003C21.5334 8.9313 19.7557 8.9313 18.6998 8.06003L17.8662 7.45068L17.8662 19.6062C17.8662 20.826 16.6433 21.7849 15.0878 21.7849C13.5323 21.7849 12.3094 20.8271 12.3094 19.6062L12.3094 7.45068L11.4758 8.06003C10.4199 8.9313 8.6422 8.9313 7.58633 8.06003C6.47526 7.23206 6.47526 5.83803 7.58633 5.01006L13.1445 0.65372C13.6441 0.217546 14.3673 -3.95818e-07 15.0892 -3.64265e-07Z" fill="#E1F1F5"/>
<path d="M14.7796 0.266601C15.5015 0.266601 16.2247 0.484147 16.7244 0.920322L22.2797 5.27666C23.3908 6.10463 23.3908 7.49866 22.2797 8.32663C21.2239 9.1979 19.4461 9.1979 18.3903 8.32663L17.5566 7.71729L17.5566 19.8728C17.5566 21.0926 16.3338 22.0515 14.7782 22.0515L14.7782 0.266601L14.7796 0.266601Z" fill="#BCE0E8"/>
<path d="M15.0878 27.0206C15.8247 27.0206 16.5313 26.7731 17.0524 26.3325C17.5734 25.8918 17.8661 25.2942 17.8661 24.671C17.8661 24.0479 17.5734 23.4502 17.0524 23.0096C16.5313 22.569 15.8247 22.3214 15.0878 22.3214L15.0878 24.671L15.0878 27.0206Z" fill="#7B3FE4"/>
<path d="M15.0878 22.3214C14.351 22.3214 13.6443 22.5689 13.1233 23.0096C12.6023 23.4502 12.3096 24.0479 12.3096 24.671C12.3096 25.2942 12.6023 25.8918 13.1233 26.3324C13.6443 26.7731 14.351 27.0206 15.0878 27.0206L15.0878 24.671L15.0878 22.3214Z" fill="#EAE0FB"/>
<path d="M15.0878 33.4821C15.8247 33.4821 16.5313 33.2345 17.0524 32.7939C17.5734 32.3532 17.8661 31.7556 17.8661 31.1325C17.8661 30.5093 17.5734 29.9117 17.0524 29.471C16.5313 29.0304 15.8247 28.7828 15.0878 28.7828L15.0878 31.1325L15.0878 33.4821Z" fill="#7B3FE4"/>
<path d="M15.0878 28.7828C14.351 28.7828 13.6443 29.0304 13.1233 29.471C12.6023 29.9116 12.3096 30.5093 12.3096 31.1324C12.3096 31.7556 12.6023 32.3532 13.1233 32.7939C13.6443 33.2345 14.351 33.4821 15.0878 33.4821L15.0878 31.1324L15.0878 28.7828Z" fill="#EAE0FB"/>
<path d="M15.0878 39.9435C15.8247 39.9435 16.5313 39.6959 17.0524 39.2553C17.5734 38.8147 17.8661 38.217 17.8661 37.5939C17.8661 36.9707 17.5734 36.3731 17.0524 35.9324C16.5313 35.4918 15.8247 35.2443 15.0878 35.2443L15.0878 37.5939L15.0878 39.9435Z" fill="#7B3FE4"/>
<path d="M15.0878 35.2442C14.351 35.2442 13.6443 35.4918 13.1233 35.9324C12.6023 36.3731 12.3096 36.9707 12.3096 37.5939C12.3096 38.217 12.6023 38.8147 13.1233 39.2553C13.6443 39.6959 14.351 39.9435 15.0878 39.9435L15.0878 37.5939L15.0878 35.2442Z" fill="#EAE0FB"/>
</svg>
