<svg width="16" height="16" viewBox="0 0 16 16" fill="none" xmlns="http://www.w3.org/2000/svg">
<g clip-path="url(#clip0_927_33434)">
<path d="M14.7696 11.4976H3.76643L6.13923 13.9216C6.55523 14.3472 6.55523 15.04 6.13923 15.4656C5.72003 15.8912 5.04323 15.8912 4.62723 15.4656L0.595234 11.3472C0.553634 11.3056 0.536034 11.2544 0.505634 11.208C0.296034 11.0112 0.160034 10.7376 0.160034 10.4272C0.160034 9.83681 0.636834 9.35681 1.22723 9.35681H14.7712C15.3616 9.35681 15.8416 9.83681 15.8416 10.4272C15.84 11.0176 15.36 11.4976 14.7696 11.4976Z" fill="white"/>
<path d="M14.7696 6.50881H1.22723C0.636834 6.50881 0.160034 6.02881 0.160034 5.43841C0.160034 4.84801 0.636834 4.36801 1.22723 4.36801H12.1888L9.86083 2.04161C9.44163 1.62241 9.44163 0.94561 9.86083 0.52961C10.2768 0.11041 10.9536 0.11041 11.3728 0.52961L15.4048 4.56161C15.424 4.58081 15.4304 4.60641 15.4496 4.62881C15.6816 4.82561 15.84 5.10881 15.84 5.43841C15.84 6.02881 15.36 6.50881 14.7696 6.50881Z" fill="white"/>
</g>
<defs>
<clipPath id="clip0_927_33434">
<rect width="16" height="16" fill="white"/>
</clipPath>
</defs>
</svg>
