<svg width="31" height="54" viewBox="0 0 31 54" fill="none" xmlns="http://www.w3.org/2000/svg">
<path d="M23.0685 7.60144C18.8768 3.40979 11.998 3.46902 7.73355 7.73349C3.46908 11.998 3.40985 18.8768 7.6015 23.0684C11.7932 27.2601 18.672 27.2008 22.9364 22.9364C27.2009 18.6719 27.2601 11.7931 23.0685 7.60144Z" fill="#D0BAF5"/>
<path d="M22.9363 22.9364C18.6718 27.2008 11.793 27.2601 7.60137 23.0684L23.0684 7.60144C27.26 11.7931 27.2008 18.6719 22.9363 22.9364Z" fill="#7B3FE4"/>
<path d="M18.6494 12.0206C16.8467 10.218 13.9112 10.2432 12.0772 12.0772C10.2433 13.9111 10.218 16.8467 12.0207 18.6493C13.8233 20.4519 16.7588 20.4266 18.5928 18.5927C20.4267 16.7588 20.452 13.8232 18.6494 12.0206Z" fill="#EAE0FB"/>
<path d="M18.5928 18.5927C16.7589 20.4267 13.8233 20.452 12.0207 18.6493L18.6494 12.0206C20.452 13.8233 20.4268 16.7588 18.5928 18.5927Z" fill="#D0BAF5"/>
<path d="M15.5807 53.9459C14.8589 53.9459 14.1356 53.7284 13.636 53.2922L8.08062 48.9359C6.96955 48.1079 6.96955 46.7139 8.08062 45.8859C9.13649 45.0146 10.9142 45.0146 11.9701 45.8859L12.8037 46.4952L12.8037 34.3397C12.8037 33.1199 14.0266 32.161 15.5821 32.161C17.1376 32.161 18.3605 33.1189 18.3605 34.3397L18.3605 46.4952L19.1941 45.8859C20.25 45.0146 22.0277 45.0146 23.0836 45.8859C24.1947 46.7139 24.1947 48.1079 23.0836 48.9359L17.5255 53.2922C17.0258 53.7284 16.3026 53.9459 15.5807 53.9459Z" fill="#E1F1F5"/>
<path d="M15.8903 53.6793C15.1684 53.6793 14.4452 53.4618 13.9456 53.0256L8.39019 48.6693C7.27912 47.8413 7.27912 46.4473 8.39019 45.6193C9.44606 44.748 11.2238 44.748 12.2796 45.6193L13.1133 46.2286L13.1133 34.0731C13.1133 32.8533 14.3362 31.8944 15.8917 31.8944L15.8917 53.6793L15.8903 53.6793Z" fill="#BCE0E8"/>
<path d="M15.5822 26.9253C14.8454 26.9253 14.1387 27.1728 13.6177 27.6135C13.0967 28.0541 12.804 28.6517 12.804 29.2749C12.804 29.8981 13.0967 30.4957 13.6177 30.9363C14.1387 31.377 14.8454 31.6245 15.5822 31.6245L15.5822 29.2749L15.5822 26.9253Z" fill="#7B3FE4"/>
<path d="M15.5823 31.6245C16.3192 31.6245 17.0258 31.377 17.5469 30.9363C18.0679 30.4957 18.3606 29.8981 18.3606 29.2749C18.3606 28.6518 18.0679 28.0541 17.5469 27.6135C17.0258 27.1728 16.3192 26.9253 15.5823 26.9253L15.5823 29.2749L15.5823 31.6245Z" fill="#EAE0FB"/>
<path d="M15.5822 20.4639C14.8454 20.4639 14.1387 20.7114 13.6177 21.152C13.0967 21.5927 12.804 22.1903 12.804 22.8135C12.804 23.4366 13.0967 24.0343 13.6177 24.4749C14.1387 24.9155 14.8454 25.1631 15.5822 25.1631L15.5822 22.8135L15.5822 20.4639Z" fill="#7B3FE4"/>
<path d="M15.5823 25.1631C16.3192 25.1631 17.0258 24.9156 17.5469 24.4749C18.0679 24.0343 18.3606 23.4366 18.3606 22.8135C18.3606 22.1903 18.0679 21.5927 17.5469 21.1521C17.0258 20.7114 16.3192 20.4639 15.5823 20.4639L15.5823 22.8135L15.5823 25.1631Z" fill="#EAE0FB"/>
<path d="M15.5822 14.0024C14.8454 14.0024 14.1387 14.25 13.6177 14.6906C13.0967 15.1313 12.804 15.7289 12.804 16.352C12.804 16.9752 13.0967 17.5728 13.6177 18.0135C14.1387 18.4541 14.8454 18.7017 15.5822 18.7017L15.5822 16.352L15.5822 14.0024Z" fill="#7B3FE4"/>
<path d="M15.5823 18.7017C16.3192 18.7017 17.0258 18.4541 17.5469 18.0135C18.0679 17.5728 18.3606 16.9752 18.3606 16.3521C18.3606 15.7289 18.0679 15.1313 17.5469 14.6906C17.0258 14.25 16.3192 14.0024 15.5823 14.0024L15.5823 16.3521L15.5823 18.7017Z" fill="#EAE0FB"/>
</svg>
